<svg width="33" height="32" viewBox="0 0 33 32" fill="none" xmlns="http://www.w3.org/2000/svg">
<g clip-path="url(#clip0_1_504)">
<path d="M16.4486 7.78404C11.9427 7.78404 8.29486 11.4614 8.29486 15.9947C8.29486 20.532 11.9467 24.2054 16.4486 24.2054C20.9545 24.2054 24.6024 20.528 24.6024 15.9947C24.6024 11.4574 20.9506 7.78404 16.4486 7.78404ZM16.4486 21.324C13.5237 21.324 11.1562 18.9387 11.1562 15.9947C11.1562 13.0507 13.525 10.6654 16.4486 10.6654C19.3722 10.6654 21.741 13.0507 21.741 15.9947C21.7424 18.9387 19.3736 21.324 16.4486 21.324Z" fill="white"/>
<path d="M22.995 0.101233C20.0714 -0.0361006 12.8299 -0.029434 9.90363 0.101233C7.33224 0.222566 5.06406 0.847899 3.23549 2.68923C0.179476 5.76657 0.570084 9.91323 0.570084 15.9946C0.570084 22.2186 0.225819 26.2692 3.23549 29.2999C6.30342 32.3879 10.4809 31.9839 16.4486 31.9839C22.5713 31.9839 24.6845 31.9879 26.8494 31.1439C29.7929 29.9932 32.0147 27.3439 32.2319 22.5852C32.3696 19.6399 32.3616 12.3492 32.2319 9.40257C31.9697 3.78523 28.9759 0.378566 22.995 0.101233ZM27.6227 27.2639C25.6193 29.2812 22.84 29.1012 16.4102 29.1012C9.78976 29.1012 7.13495 29.1999 5.1978 27.2439C2.9667 25.0079 3.37055 21.4172 3.37055 15.9732C3.37055 8.60657 2.61978 3.30123 9.96189 2.92257C11.6488 2.86257 12.1453 2.84257 16.3917 2.84257L16.4513 2.88257C23.5074 2.88257 29.0434 2.13857 29.3758 9.53057C29.4513 11.2172 29.4685 11.7239 29.4685 15.9932C29.4671 22.5826 29.5916 25.2719 27.6227 27.2639Z" fill="white"/>
<path d="M24.9255 9.37862C25.9778 9.37862 26.8309 8.5196 26.8309 7.45995C26.8309 6.4003 25.9778 5.54129 24.9255 5.54129C23.8732 5.54129 23.0201 6.4003 23.0201 7.45995C23.0201 8.5196 23.8732 9.37862 24.9255 9.37862Z" fill="white"/>
</g>
<defs>
<clipPath id="clip0_1_504">
<rect width="31.7783" height="32" fill="white" transform="translate(0.554199)"/>
</clipPath>
</defs>
</svg>
