<svg width="16" height="16" viewBox="0 0 16 16" fill="none" xmlns="http://www.w3.org/2000/svg">
<path d="M15.8989 2.01937C15.8113 1.9099 15.6787 1.84619 15.5385 1.84619H3.25475L2.91125 0.35775C2.8629 0.148344 2.67643 0 2.46153 0H0.461531C0.206656 0 0 0.206656 0 0.461562C0 0.716468 0.206656 0.923093 0.461531 0.923093H2.09437L4.426 11.0269C4.47431 11.2363 4.66081 11.3846 4.87571 11.3846H14.123C14.378 11.3846 14.5846 11.178 14.5846 10.9231C14.5846 10.6682 14.3779 10.4616 14.123 10.4616H5.2429L4.8879 8.92309H14.1539C14.3697 8.92309 14.5568 8.77346 14.6041 8.56287L15.9887 2.40903C16.0195 2.27222 15.9865 2.12887 15.8989 2.01937ZM13.7846 7.99999H4.67487L3.46778 2.76925H14.9615L13.7846 7.99999Z" fill="white"/>
<path d="M6.76946 12C5.83634 12 5.07715 12.7592 5.07715 13.6923C5.07715 14.6255 5.8363 15.3846 6.76946 15.3846C7.70258 15.3846 8.46177 14.6255 8.46177 13.6923C8.46177 12.7592 7.70262 12 6.76946 12ZM6.76946 14.4616C6.3453 14.4616 6.00024 14.1165 6.00024 13.6923C6.00024 13.2682 6.3453 12.9231 6.76946 12.9231C7.19362 12.9231 7.53868 13.2682 7.53868 13.6923C7.53868 14.1165 7.19362 14.4616 6.76946 14.4616Z" fill="white"/>
<path d="M12.3075 12C11.3744 12 10.6152 12.7592 10.6152 13.6923C10.6152 14.6255 11.3744 15.3846 12.3075 15.3846C13.2407 15.3846 13.9999 14.6255 13.9999 13.6923C13.9999 12.7592 13.2407 12 12.3075 12ZM12.3075 14.4616C11.8834 14.4616 11.5383 14.1165 11.5383 13.6923C11.5383 13.2682 11.8834 12.9231 12.3075 12.9231C12.7317 12.9231 13.0768 13.2682 13.0768 13.6923C13.0768 14.1165 12.7317 14.4616 12.3075 14.4616Z" fill="white"/>
</svg>
