<svg width="37" height="40" viewBox="0 0 37 40" fill="none" xmlns="http://www.w3.org/2000/svg">
<path opacity="0.2" d="M36.4323 39.3777C36.4323 39.0366 28.7828 38.7556 19.3579 38.7556C9.93297 38.7556 2.28345 39.0366 2.28345 39.3777C2.28345 39.7188 9.93297 39.9998 19.3579 39.9998C28.8047 39.9998 36.4323 39.7188 36.4323 39.3777Z" fill="#5D5D5D"/>
<path d="M19.5992 7.87305C27.0296 7.87305 33.0571 13.3914 33.0571 20.194V32.515H19.5992C12.1689 32.515 6.14136 26.9967 6.14136 20.194V7.87305H19.5992Z" fill="white"/>
<path opacity="0.3" d="M31.1283 13.8525C30.0105 15.0365 29.3311 16.5816 29.3311 18.2673C29.3311 20.7756 30.8215 22.9629 33.0352 24.1468V20.1937C33.0352 17.886 32.3557 15.7188 31.1283 13.8525Z" fill="white"/>
<path d="M25.8459 9.29761C23.7418 10.4013 22.339 12.4682 22.339 14.8561C22.339 18.3879 25.4733 21.2574 29.331 21.2574C30.6899 21.2574 31.9612 20.8962 33.0352 20.2741V20.1939C33.0352 15.4581 30.12 11.3444 25.8459 9.29761Z" fill="white"/>
<path opacity="0.5" d="M15.2813 10.2603C11.8182 10.2603 8.64005 11.3639 6.14136 13.2301V20.2134C6.14136 27.016 12.1689 32.5344 19.5992 32.5344H26.0432C28.3885 30.1665 29.8132 27.0361 29.8132 23.5846C29.8132 16.2201 23.3034 10.2603 15.2813 10.2603Z" fill="#F8F6EC"/>
<path d="M33.0352 32.4949L19.5992 32.515C12.1689 32.515 6.14136 26.9966 6.14136 20.194V7.89307L33.0352 32.4949Z" fill="white"/>
<path opacity="0.3" d="M8.22363 12.2877C8.22363 21.6388 16.5088 29.204 26.7008 29.204C27.5775 29.204 28.4323 29.1438 29.2652 29.0435L8.39898 9.95996C8.28939 10.7225 8.22363 11.5051 8.22363 12.2877Z" fill="white"/>
<path opacity="0.3" d="M33.0352 32.515L6.25098 7.99341C9.40722 12.3078 13.0457 16.6823 16.7499 20.2943C19.6431 23.1037 27.994 29.3846 33.0352 32.515Z" fill="white"/>
<path opacity="0.3" d="M14.9307 15.9198L6.14136 7.89307V20.214C6.14136 25.6521 9.999 30.2675 15.3252 31.8929C13.0457 29.7859 11.6429 26.8962 11.6429 23.7257C11.6429 20.7157 12.8922 17.9866 14.9307 15.9198Z" fill="white"/>
<path opacity="0.3" d="M26.8981 26.8962C24.6186 29.4447 21.1555 31.0902 17.2759 31.0902C14.6895 31.0902 12.2785 30.3678 10.2839 29.1237C12.695 31.2307 15.9608 32.535 19.5773 32.535H33.0352V32.515L26.8981 26.8962Z" fill="white"/>
<path opacity="0.3" d="M6.93042 15.2576C6.93042 13.271 7.30303 11.3446 8.00442 9.57868L6.14136 7.89307V20.2141C6.14136 27.0167 12.1689 32.5351 19.5992 32.5351H33.0571V32.515L31.7201 31.291C29.7694 31.9331 27.6871 32.2742 25.4953 32.2742C15.2375 32.2542 6.93042 24.6488 6.93042 15.2576Z" fill="#F8F6EC"/>
<path d="M32.8155 34.903C33.758 34.6622 34.7443 35.1839 34.9854 36.0468C35.2484 36.9097 34.6785 37.8127 33.7141 38.0335C32.7716 38.2743 31.7853 37.7525 31.5442 36.8896C31.3031 36.0268 31.873 35.1438 32.8155 34.903ZM32.4648 33.6789C30.7771 34.1003 29.7688 35.6655 30.2291 37.2107C30.6675 38.7559 32.399 39.6789 34.0867 39.2575C35.7744 38.8361 36.7827 37.2508 36.3224 35.7258C35.884 34.1806 34.1525 33.2776 32.4648 33.6789Z" fill="white"/>
<path opacity="0.5" d="M34.7001 37.4509C34.459 37.7318 34.1303 37.9526 33.7357 38.0529C32.7932 38.2937 31.8069 37.772 31.5658 36.9091C31.3905 36.267 31.6316 35.6248 32.1576 35.2436C31.8946 34.9024 31.6754 34.5212 31.4562 34.1399C30.4042 34.8222 29.8781 36.0462 30.2288 37.2502C30.6672 38.7954 32.3987 39.7184 34.0864 39.297C34.8755 39.0964 35.5111 38.6549 35.9276 38.073C35.5111 37.8723 35.0947 37.6716 34.7001 37.4509Z" fill="white"/>
<path d="M6.77631 34.9028C7.7188 34.6821 8.70512 35.2038 8.94622 36.0667C9.18733 36.9295 8.61745 37.8325 7.67496 38.0533C6.73247 38.274 5.74615 37.7523 5.50504 36.8894C5.26394 36.0266 5.83382 35.1236 6.77631 34.9028ZM6.42561 33.6788C4.7379 34.0801 3.72966 35.6654 4.16802 37.2105C4.60639 38.7556 6.33794 39.6787 8.02565 39.2773C9.71337 38.876 10.7216 37.2907 10.3052 35.7456C9.84488 34.2005 8.11333 33.2774 6.42561 33.6788Z" fill="white"/>
<path opacity="0.5" d="M8.63962 37.4711C8.39852 37.752 8.06974 37.9728 7.67521 38.053C6.73273 38.2738 5.7464 37.752 5.5053 36.8891C5.32995 36.247 5.59297 35.6048 6.09709 35.2236C5.83407 34.8824 5.61489 34.5011 5.41762 34.1199C4.36554 34.7821 3.81759 36.0062 4.16828 37.2102C4.60665 38.7554 6.33819 39.6785 8.02591 39.2771C8.81497 39.0965 9.47252 38.635 9.86705 38.053C9.42868 37.8925 9.03415 37.6918 8.63962 37.4711Z" fill="white"/>
<path d="M6.99601 7.03016C6.57956 7.03016 6.22886 6.70909 6.22886 6.32782C6.22886 4.68234 5.72474 3.4382 4.76033 2.61546C3.20413 1.27098 0.858866 1.41145 0.836948 1.41145C0.420499 1.45158 0.0478868 1.15058 0.00405006 0.769307C-0.0397867 0.388037 0.288989 0.0469004 0.705438 0.00676672C0.836948 0.00676672 3.73017 -0.193902 5.7905 1.55191C7.1056 2.65559 7.76315 4.26094 7.76315 6.30776C7.76315 6.70909 7.43437 7.03016 6.99601 7.03016Z" fill="white"/>
</svg>
