<svg width="80" height="27" viewBox="0 0 80 27" fill="none" xmlns="http://www.w3.org/2000/svg">
<path d="M30.7208 22.851C27.744 20.9334 23.7041 20.5969 17.1889 22.4045C10.2432 24.0367 7.92742 25.083 4.88612 22.9826C3.71772 21.9508 3.29882 20.2895 3.61162 17.8965C4.33712 13.9955 6.29772 10.2414 9.78032 6.07717C11.7241 3.91097 13.5273 2.05197 15.9082 1.30547C17.733 0.837172 17.5624 2.27127 17.3416 2.47637C17.1086 2.47637 16.7172 2.51307 16.4147 2.71047C16.1692 2.90087 15.4953 3.51567 15.4591 4.34267C15.4069 5.60867 16.717 5.34517 17.2821 4.65007C17.8912 3.86677 18.7914 2.36677 18.0833 0.968772C17.7865 0.471172 17.2737 0.127272 16.637 0.010172C14.4568 -0.114428 12.4264 0.924872 10.5524 2.07387C6.45422 4.92077 3.17592 8.86557 1.32092 13.1836C0.251523 15.7889 -0.715677 19.5209 0.734023 22.5584C1.85562 24.666 4.18392 25.7855 6.96182 25.5514C8.91012 25.3467 11.266 24.717 12.8505 24.3368C14.4351 23.9559 22.5459 21.1679 25.2109 26.0204C25.2109 26.0204 26.0971 24.3001 28.3118 24.2634C30.1326 24.0954 32.7594 24.7905 34.6722 26.1954C34.0349 25.237 32.2281 23.8245 30.7208 22.851Z" fill="#E61A27"/>
<path d="M18.0161 6.56745C16.4991 5.57215 13.4501 7.47495 11.008 10.7389C8.7748 13.6666 7.8105 17.0693 8.86 18.6428C10.421 20.4943 13.3191 17.8012 14.5515 16.3597L14.7105 16.1912C15.5486 15.291 16.196 14.2078 16.8228 13.1684C16.8228 13.1684 17.3988 12.217 17.4263 12.173C17.7823 12.1074 18.2111 12.0049 18.6943 11.8658C18.6874 11.8876 16.8456 14.9834 17.0335 16.52C17.092 16.9888 17.0474 18.7013 18.7193 19.2208C20.9477 19.5943 22.7271 17.8669 24.2969 16.33C24.2969 16.33 24.5644 16.0741 24.7157 15.928C24.6774 16.0812 24.6275 16.2857 24.6275 16.2857C23.9751 18.5545 24.8545 19.0306 25.4046 19.2062C27.0671 19.6896 29.0532 17.2743 29.0597 17.2743C29.0081 18.0351 28.8576 18.6644 29.6596 19.1695C30.4165 19.4405 31.1826 19.0273 31.765 18.6394C33.8625 17.1612 35.5523 14.8474 36.9171 12.8475H36.0465C36.0362 12.8475 33.8983 15.9463 32.51 16.6198C32.5078 16.6198 32.2551 16.7495 32.1096 16.6469C31.9293 16.4932 32.0004 16.1735 32.1117 15.9471C32.1187 15.9324 37.4721 6.64745 37.4721 6.64745H34.9445C34.9445 6.64745 34.6684 7.09415 34.6459 7.12345C34.6289 7.10885 34.5884 7.03205 34.5604 6.99525C32.9944 4.82905 29.4481 8.16105 26.7782 12.0251C25.7503 13.5109 24.4416 15.1838 23.0846 16.3913C23.0846 16.3913 21.0742 18.2341 20.2153 16.9101C19.9013 16.3538 19.9979 15.5405 20.175 15.0064C21.1751 12.1594 22.8984 9.57565 24.8595 8.01675C25.413 7.58525 26.0148 7.46045 26.3133 7.64345C26.5979 7.81205 26.6438 8.22885 26.4638 8.51435C26.0071 8.49975 25.6411 8.63855 25.3437 8.94595C24.7577 9.56075 24.5541 10.1537 24.7404 10.71C25.6455 11.998 27.4506 9.45105 27.3633 7.89955C27.3321 7.34325 27.0354 6.81645 26.5924 6.56005C25.9323 6.16505 24.9253 6.26735 24.2736 6.58225C23.4011 6.91145 22.0202 8.06035 21.2141 8.95335C20.1993 10.0733 18.4588 11.3173 17.9146 11.178C18.0925 10.7022 19.5626 7.69435 18.0161 6.56745ZM30.2022 11.0171C30.6939 10.3366 32.125 8.51415 32.4739 8.20685C33.6473 7.17455 34.1163 7.62875 34.1569 7.95055C33.0618 9.91185 31.7693 12.1588 30.5541 14.1788C30.5566 14.1716 30.1738 14.7569 30.1738 14.7569C29.6371 15.5763 29.0967 16.279 28.2152 16.7692C28.0895 16.8061 27.8823 16.8208 27.7444 16.7179C27.5784 16.6081 27.5129 16.4251 27.5316 16.2348C27.5845 15.6056 28.2251 13.6812 30.2022 11.0171ZM16.4517 12.1953C16.4517 12.1953 16.4296 12.2614 16.4188 12.283C16.416 12.283 15.3167 14.0758 15.3167 14.0758C14.6533 14.9615 13.825 16.0742 12.7896 16.6082C12.4827 16.7106 12.0584 16.7767 11.8422 16.5061C11.3839 15.9571 11.6201 15.1959 11.812 14.5813L11.88 14.3617C12.4302 12.8689 13.3031 11.5513 14.1529 10.3291C14.1635 10.3219 14.1873 10.3146 14.1959 10.3146C14.198 10.3219 14.2014 10.3219 14.2028 10.3366C14.736 11.361 15.7358 11.8365 16.4835 12.0564C16.488 12.0564 16.4929 12.0637 16.4929 12.0784C16.493 12.1002 16.4808 12.1297 16.4517 12.1953ZM17.4931 10.0805C17.4882 10.0951 17.0035 11.2075 17.0035 11.2075C16.9334 11.266 16.8226 11.2368 16.6956 11.2075L16.478 11.1707C15.7947 10.9586 15.2793 10.5048 15.1204 9.96325C14.9013 8.90935 15.8016 8.08235 16.1982 7.78245C16.5788 7.51875 17.1705 7.37975 17.5141 7.65065C17.726 7.89955 17.8063 8.22145 17.8063 8.57295C17.8064 9.04845 17.6596 9.58265 17.4931 10.0805ZM49.4471 13.476C49.2033 12.9492 48.6248 12.6125 48.0082 12.649C46.0059 12.8321 44.0474 14.4787 43.019 16.8424C42.4794 18.0574 42.1849 19.0599 41.9918 20.6553C42.6145 19.9383 43.8845 18.7601 45.3257 18.116C45.3257 18.116 45.5218 16.5865 46.5218 15.2252C46.9002 14.6615 47.6574 13.7541 48.5077 13.9955C49.2507 14.2444 48.9895 16.301 48.0021 18.2912C47.2715 19.7551 46.1535 21.2192 45.0223 22.2289C44.0222 23.0778 42.5425 24.1024 41.2479 23.3121C40.4325 22.8293 40.0166 21.819 40.1044 20.5164C40.494 16.8207 42.1764 13.6737 44.5839 10.0877C47.0663 6.75775 49.8027 3.34005 53.489 1.51745C54.2409 1.13695 54.9372 1.04915 55.5391 1.28335C55.5391 1.28335 52.0787 3.18615 50.4292 6.70645C50.0096 7.59945 49.426 8.80665 50.0137 9.87525C50.3208 10.4314 50.866 10.4754 51.3051 10.4461C53.327 9.97755 54.6333 8.08945 55.7006 6.36245C56.3194 5.05245 56.8694 3.74975 56.8694 2.30065C56.8694 2.12505 56.8603 1.89095 56.8455 1.71515C57.8114 1.20305 59.7923 2.11035 59.7923 2.11035C61.3402 2.62285 64.6361 5.14785 65.7479 5.63065C66.2902 5.00135 67.1814 4.05005 67.6833 3.57425L66.9568 3.12775C65.7938 2.41785 64.5645 1.74445 63.3546 1.07855C60.6067 -0.421546 58.3699 0.105254 57.2316 0.515154C56.7842 0.676054 56.3754 0.815154 56.3754 0.815154C55.5306 -0.106946 54.145 -0.0193461 53.1241 0.229654C49.4527 1.28345 46.044 3.85215 42.3895 8.30925C39.7027 11.8003 38.0361 14.8156 37.1478 17.7941C36.4631 19.7993 36.255 22.7486 37.9262 24.4978C39.3471 25.9831 41.2312 25.6613 42.5616 25.1273C45.4443 23.7075 48.0352 20.6482 49.3262 17.1279C49.6378 16.0815 49.9835 14.6032 49.4471 13.476ZM56.0758 2.44715C55.6942 6.82365 52.2923 9.39265 51.4505 9.59725C50.9404 9.69955 50.07 9.47285 50.8471 7.63615C51.9913 5.16225 53.945 3.06205 56.041 1.98615C56.0921 2.16915 56.0907 2.28595 56.0758 2.44715ZM76.2556 3.00315C74.4257 4.04255 72.5287 4.71565 70.2325 4.48155C69.5962 5.19895 68.9765 5.93805 68.4054 6.69905C71.6283 7.51875 75.045 5.69645 76.9506 3.96215C78.9665 2.21295 80.0001 0.0102539 80.0001 0.0102539C80.0001 0.0102539 78.4891 1.73725 76.2556 3.00315ZM41.673 6.64765H39.2726L37.9186 8.84765H40.3185L41.673 6.64765Z" fill="#E61A27"/>
<path d="M70.2231 23.0546C69.965 23.2302 69.6024 23.0952 69.7379 22.6928C70.0757 21.6682 71.4183 19.5802 71.4183 19.5802L75.1578 12.9476H72.5964C72.4746 13.1476 72.2143 13.6068 72.2143 13.6068C72.0958 13.4094 71.7414 12.9705 71.5955 12.8756C70.9697 12.4801 70.0516 12.6671 69.4182 13.0256C66.6643 14.6359 64.655 17.8174 63.0703 20.2985C63.0703 20.2985 61.4023 23.0565 60.4764 23.2616C59.7535 23.3202 59.8281 22.3464 59.8594 22.1195C60.1389 20.4799 60.788 18.9212 61.4419 17.5087C62.772 16.5866 64.2899 15.3791 65.6694 14.0545C68.6632 11.1927 71.1871 7.95061 71.556 7.22611C71.556 7.22611 71.1567 7.30671 70.6852 7.32121C68.382 10.534 63.6688 15.2034 62.24 15.8985C62.8729 14.3759 66.9627 7.10891 70.4429 3.63271L70.9906 3.10561C71.8375 2.27861 72.7149 1.42971 73.3987 1.29061C73.4709 1.28331 73.5639 1.29061 73.6442 1.45921C73.6747 2.10311 73.435 2.57891 73.16 3.12041L72.7746 3.91091C72.7746 3.91091 73.3205 3.80841 73.6791 3.69101C74.0949 2.90831 74.5557 2.02981 74.3858 0.983507C74.3292 0.646807 74.0854 0.390707 73.7669 0.332107C72.7288 0.134507 71.5974 0.902707 70.6869 1.52501L70.6502 1.54681C65.97 5.21341 62.0182 10.4974 58.563 17.7135C58.3126 17.9035 57.3451 18.1306 57.1807 18.0207C57.5219 17.3183 57.9515 16.374 58.1664 15.3494C58.2036 15.0565 58.2382 14.7567 58.2382 14.464C58.2382 13.8341 58.087 13.2415 57.5228 12.8319C56.8612 12.5025 56.0435 12.6563 55.4921 12.9049C53.0224 13.9295 51.1765 16.4619 49.8445 18.5474C49.1281 19.8724 48.4138 21.2915 48.216 22.9165C48.0767 24.1897 48.3603 25.0095 49.0843 25.4194C49.8287 25.7997 50.7657 25.4044 51.1338 25.2143C53.6358 23.8969 55.3841 21.2551 56.7621 18.8399C56.8169 18.8327 57.5693 18.8109 58.1385 18.6643C58.146 18.6643 58.1492 18.6643 58.1618 18.6719C58.1292 18.7813 57.8351 19.6598 57.8351 19.6598C56.9617 22.221 56.5578 23.963 57.3828 24.9948C58.5617 26.4512 60.5135 24.9438 62.1012 22.9528C61.7604 25.3385 62.9967 25.712 63.9393 25.5292C65.022 25.2366 66.2285 24.08 66.7884 23.4874C66.6086 24.1825 66.6574 25.4269 67.6424 25.5511C68.3174 25.6759 68.8227 25.3087 69.4072 24.9939C71.5041 23.8521 74.0141 20.0474 74.6658 18.9474H73.8114C72.8849 20.3477 71.706 22.1833 70.2231 23.0546ZM51.4014 22.7998C51.2684 22.6021 51.2243 22.3861 51.2199 22.1525C51.1945 20.7174 52.7384 18.1476 53.8281 16.7476H53.8304C54.287 17.7476 55.3212 18.3904 55.9455 18.6613C55.1702 20.3886 52.5109 24.0878 51.4014 22.7998ZM56.3832 17.8891C56.3094 17.9407 55.0053 17.5013 54.7532 16.2938C54.5394 15.2542 55.2553 14.4419 55.9479 14.0325C56.2452 13.7981 56.693 13.7179 57.0215 13.8345C57.3264 14.0398 57.409 14.406 57.409 14.8005C57.409 15.0425 57.3769 15.2911 57.3486 15.5179L57.3424 15.5693C57.124 16.3807 56.8016 17.1604 56.3832 17.8891ZM66.8428 22.3388C66.8417 22.3388 66.5953 22.5583 66.5953 22.5583C66.2435 22.8729 65.8815 23.2095 65.4445 23.0411C65.3238 22.9973 65.2389 22.8364 65.2185 22.7116C65.1986 21.8114 65.6039 20.9773 65.9971 20.165L66.0979 19.9527C67.2287 18.0646 68.5431 15.8398 70.4735 14.2958C70.7988 14.0611 71.1518 13.8639 71.5244 14.0177C71.6101 14.0981 71.7099 14.2372 71.7099 14.3761C71.7099 14.4202 71.6707 14.5372 71.6482 14.5737C71.109 15.445 70.5956 16.3596 70.0963 17.2378C69.1205 18.9723 68.1082 20.765 66.8428 22.3388Z" fill="#E61A27"/>
</svg>
