<svg width="80" height="58" viewBox="0 0 80 58" fill="none" xmlns="http://www.w3.org/2000/svg">
<g clip-path="url(#clip0_65_895)">
<path d="M71.8779 15.6052C72.5537 15.6052 73.1015 15.0566 73.1015 14.3799C73.1015 13.7033 72.5537 13.1547 71.8779 13.1547C71.2021 13.1547 70.6543 13.7033 70.6543 14.3799C70.6543 15.0566 71.2021 15.6052 71.8779 15.6052Z" fill="#7B002B"/>
<path d="M72.865 13.9316C72.9539 14.1265 72.9832 14.3433 72.9492 14.5548C72.9152 14.7663 72.8194 14.963 72.6739 15.1201C72.5284 15.2771 72.3397 15.3875 72.1316 15.4373C71.9236 15.4871 71.7054 15.474 71.5047 15.3998C71.304 15.3256 71.1298 15.1935 71.004 15.0203C70.8781 14.847 70.8064 14.6403 70.7978 14.4262C70.7891 14.2122 70.844 14.0004 70.9554 13.8175C71.0669 13.6346 71.2299 13.4889 71.424 13.3987C71.6858 13.2793 71.9842 13.2682 72.2541 13.368C72.524 13.4679 72.7435 13.6704 72.865 13.9316Z" fill="white"/>
<path d="M46.6993 32.8354V33.1581L41.2766 35.7155V35.2858C41.2766 35.2858 42.0111 34.5766 42.0111 32.6177V20.3899C42.0111 20.3899 41.775 18.8025 40.9824 18.4573V18.1102L44.1772 16.7348C44.4902 16.5997 45.2303 16.0256 45.4252 15.7047H45.7119V16.793C46.7649 15.1475 48.1665 14.1418 49.8604 14.0236C52.525 13.8284 53.1995 16.9018 53.1152 19.0389C52.9803 22.6865 50.6943 26.7993 47.0441 27.5161C46.6225 27.6005 46.1578 27.5086 45.7119 27.3641V31.0454C45.7137 31.0473 45.6613 32.3813 46.6993 32.8354Z" fill="#7B002B"/>
<path d="M34.6583 38.3328V38.6631L29.245 41.2205V40.7908C29.245 40.7908 29.9701 40.0816 29.9701 38.1227V25.8967C29.9701 25.8967 29.734 24.3075 28.9414 23.9622V23.617L32.1456 22.2398C32.4585 22.1066 33.1987 21.5305 33.3935 21.2022H33.6727V22.2998C34.7333 20.6524 36.1255 19.6486 37.8213 19.5229C40.4858 19.3353 41.151 22.4011 41.0761 24.5458C40.9411 28.1839 38.6645 32.2986 35.0144 33.0154C34.5853 33.0998 34.1206 33.0154 33.6746 32.8634V36.5541C33.6727 36.5503 33.6296 37.8844 34.6583 38.3328ZM64.4647 13.4756L57.794 16.7253C57.794 16.7253 57.7434 19.0557 59.8346 19.0557C61.9257 19.0557 64.489 15.7553 64.489 15.7553L64.7251 15.8829L63.9157 19.0238C63.9157 19.0238 60.3311 22.5362 57.1194 22.5362C53.8984 22.5362 53.7972 17.9749 53.7972 17.9749C53.7972 17.9749 53.5873 12.8508 58.5529 9.80927C63.5203 6.82219 64.727 11.5674 64.4647 13.4756Z" fill="#7B002B"/>
<path d="M28.9251 29.7207L22.2544 32.9704C22.2544 32.9704 22.2038 35.3008 24.2949 35.3008C26.3861 35.3008 28.9494 31.9985 28.9494 31.9985L29.1855 32.1336L28.3761 35.2745C28.3761 35.2745 24.7915 38.7794 21.5704 38.7794C18.3588 38.7794 18.2482 34.2294 18.2482 34.2294C18.2482 34.2294 18.0458 29.0958 23.0114 26.0637C27.9807 23.0842 29.1855 27.8125 28.9251 29.7207Z" fill="#7B002B"/>
<path d="M18.8233 40.0122V40.3255L10.3331 44.2339V43.8717C10.3331 43.8717 11.5042 42.5715 11.5042 40.4268V23.2774C11.5042 23.2774 11.5886 19.9676 9.86843 19.309V19.0238L19.1437 14.7515C24.3622 12.3348 25.9305 14.8097 26.1423 17.2489C26.4121 20.2979 25.1473 23.8591 22.2635 25.5759C20.8563 26.4109 19.421 27.1952 17.9632 27.805V27.2908C19.9457 25.7541 21.1093 23.1536 21.0418 20.5962C21.0081 19.4723 19.9044 17.9956 18.4616 18.7124L16.5897 19.6505V36.4435C16.5897 36.4416 16.5372 40.5619 18.8233 40.0122ZM70.0058 16.4721V16.7085L64.7948 19.2002V18.7781C64.7948 18.7781 65.3851 17.9844 65.3851 16.4721V9.06818C65.3851 9.06818 65.267 8.0212 64.3732 7.44705L68.0571 5.75087C68.0571 5.75087 68.6979 5.39625 68.9846 4.97408L69.1795 5.17672V6.27436C69.1795 6.27436 70.4349 3.66442 72.2581 3.66442V6.86352C72.2581 6.86352 70.0246 7.25191 69.1963 9.27082V14.9954C69.1963 14.9954 69.1963 15.9842 70.0058 16.4721ZM47.7621 12.8077V13.0441L42.5511 15.5358V15.1136C42.5511 15.1136 43.1413 14.32 43.1413 12.8077V5.40376C43.1413 5.40376 43.0233 4.35678 42.137 3.78263L45.8133 2.08645C45.8133 2.08645 46.4542 1.7337 46.7409 1.30966L46.9432 1.5123V2.60994C46.9432 2.60994 48.1987 0 50.02 0V3.1991C50.02 3.1991 47.7771 3.58749 46.9601 5.6064V11.331C46.962 11.331 46.962 12.3179 47.7621 12.8077ZM34.2202 19.3691L27.096 22.7295V22.2905C27.096 22.2905 27.9973 21.5812 27.9973 19.082V6.77158C27.9973 6.77158 27.8718 5.08291 26.7756 5.20112V4.91404L34.0947 1.55358C37.2576 0.10132 41.8952 1.06386 41.8952 5.91786V7.72474C41.8934 13.0441 38.4194 17.3858 34.2202 19.3691ZM11.1932 54.6286C11.1932 54.6286 10.6104 54.7881 10.4849 54.9813C10.3575 55.1765 10.1308 55.1427 9.84407 55.1765C9.55738 55.2121 9.55738 55.623 9.16951 55.623C8.78913 55.623 8.40125 55.7262 8.30944 56.0471C8.20825 56.3679 7.79602 56.655 7.37254 56.7132C6.96031 56.7807 6.47874 56.655 6.99404 56.3323C7.50933 56.0096 7.05212 55.7844 7.05212 55.623C7.05212 55.4635 7.11958 55.0489 7.37254 54.9494C7.63487 54.8556 8.20825 54.3077 8.20825 54.3077C8.20825 54.3077 8.40313 54.0207 8.08271 53.9869C7.76229 53.9531 7.53556 53.895 7.44187 54.1145C7.35006 54.3415 6.80104 55.3041 6.80104 55.3041C6.80104 55.3041 6.09274 55.2121 5.9672 55.6587C5.84166 56.1052 5.48564 56.4936 5.32636 56.5537C5.16709 56.6212 4.97222 56.3942 4.71926 56.5893C4.4663 56.7845 4.39884 56.2084 4.14588 56.5293C3.88355 56.8501 3.31017 56.8164 3.31017 56.8164C3.31017 56.8164 3.56313 55.9139 3.24271 56.2328C2.92229 56.5537 2.31519 57.0359 1.89358 57.0096C1.47948 56.9758 1.25275 57.0359 1.09347 57.2291C0.934203 57.4224 0.392678 57.2629 0.392678 57.2629L0.00292969 56.8745C0.00292969 56.8745 0.48262 56.5537 0.643766 56.3004C0.804911 56.0471 1.12533 55.533 1.2846 55.2459C1.44387 54.9513 1.41015 54.6305 1.73056 54.5367C2.05098 54.4353 2.11844 54.1483 2.11844 53.8612C2.11844 53.576 1.63875 53.6079 1.4776 53.7936C1.4776 53.7936 1.4776 53.4127 1.76429 53.1519C2.05098 52.8986 2.82673 52.165 3.07969 51.9023C3.33265 51.649 3.43384 51.649 3.43384 51.938C3.43384 52.2232 3.49193 52.7729 3.78798 52.7729C4.07467 52.7729 4.39509 52.5102 4.46255 52.2232C4.52251 51.938 5.10338 51.2963 4.84293 51.1011C4.58997 50.906 4.26955 50.9736 4.14213 51.2269C4.00722 51.4877 3.62871 51.3601 3.94726 51.0073C4.26767 50.6527 4.55436 50.1367 4.68178 49.8834C4.80733 49.6207 5.06966 49.3693 5.60931 49.2417C6.15833 49.1066 8.40125 48.5325 9.04209 48.1779C9.68292 47.8251 11.2251 46.8607 12.473 46.4817C13.7209 46.0933 13.4343 45.9319 14.328 45.84C15.2293 45.7387 15.9976 45.1983 16.4773 44.8756C16.957 44.5547 17.3711 44.202 17.3711 44.5547V44.6148C17.3711 44.6148 17.5997 44.2339 18.2386 43.8117C18.8795 43.397 19.807 43.2038 20.3542 43.2038C20.9013 43.2038 21.0287 43.11 21.2217 42.9167C21.4072 42.7216 21.7295 42.564 21.8626 42.851C21.9881 43.1362 22.4697 42.9167 22.6889 42.7572C22.9175 42.5959 23.0768 42.3688 22.8838 42.1737C22.6889 41.9879 22.4697 41.5658 22.6889 41.472C22.9175 41.3706 23.178 41.3706 23.178 41.6333C23.178 41.8866 23.3653 42.3688 23.5583 42.3332C23.7532 42.3088 23.7176 41.4063 24.1055 41.6333C24.4859 41.8528 25.033 41.532 25.6064 41.3462C26.1891 41.1511 26.6688 40.5113 26.7026 40.9935C26.7269 41.4738 27.2759 40.8584 27.5383 40.697C27.7912 40.5375 28.1116 39.6763 28.6251 39.9277C29.1385 40.1904 29.1385 40.2824 28.8199 40.5357C28.4995 40.7984 28.4658 41.2111 28.4995 41.6333C28.5257 42.048 28.6588 42.0123 29.1404 41.8284C29.6219 41.6333 32.6649 40.3518 32.9516 40.1904C33.2383 40.0309 35.1946 39.0665 35.1946 39.0665C35.1946 39.0665 35.4813 38.9652 35.3538 38.6781C35.2283 38.3911 35.262 38.0045 34.966 37.9689C34.6793 37.9426 34.1996 37.361 34.4863 36.845C34.7805 36.3309 34.9416 35.9838 34.9416 36.6255C34.9416 37.269 35.1608 37.361 35.4213 37.0739C35.6743 36.7868 35.8354 36.7193 35.9609 36.9801C36.0865 37.2334 36.2476 37.0382 36.4425 36.8788C36.6374 36.7174 36.9222 36.8187 37.0833 37.0045C37.2426 37.1996 37.3775 36.9463 37.4375 36.6836C37.5049 36.4284 37.6979 35.3984 38.365 35.5259C39.0396 35.661 39.7722 35.661 39.7722 35.4002C39.7722 35.1469 39.6111 34.9199 39.864 34.9199C40.117 34.9199 40.3437 35.1469 40.2782 35.6873L40.7578 35.661V36.5898L46.947 33.796C46.947 33.796 47.5541 33.6703 47.3948 32.9929C47.2355 32.3156 47.3348 32.4788 47.0744 32.4526C46.8214 32.4188 46.501 31.9047 46.7277 31.6176C46.947 31.323 47.1081 30.747 47.2337 31.1617C47.3686 31.5838 47.5878 32.1336 47.5878 32.1336C47.5878 32.1336 47.8501 32.5482 48.0356 31.839C48.2305 31.1373 48.3879 30.7845 48.7439 30.5218C49.0962 30.2685 49.6377 30.0753 49.7726 29.8801C49.8982 29.6925 49.9919 29.3979 50.3123 29.533C50.6327 29.6587 50.4716 29.8182 50.1868 30.0134C49.9001 30.201 49.4185 30.6569 49.7052 30.8746C49.9919 31.1035 50.1193 31.1373 50.2523 30.9778C50.3797 30.8164 50.539 30.7489 50.539 31.1373C50.539 31.5182 50.5053 31.9985 50.8932 31.9985C51.2717 31.9985 51.4665 31.7133 51.5677 31.3249C51.6595 30.944 51.6277 30.5556 52.0156 30.9102C52.3941 31.263 52.336 30.8164 52.336 30.8164C52.336 30.8164 52.3941 30.428 52.8494 30.5218C53.2954 30.6232 54.0973 30.4956 54.384 30.2685C54.6707 30.0396 55.7669 29.2722 55.7669 29.2722C55.7669 29.2722 56.2147 28.9176 56.374 29.4317C56.374 29.4317 56.5689 29.1109 56.7544 29.1109C56.9493 29.1109 56.7544 28.3097 57.0504 28.8576C57.3371 29.3979 58.4239 27.9869 59.9679 27.7937C59.9679 27.7937 60.382 27.5742 60.5413 27.8612C60.7006 28.1483 60.8955 27.3809 61.3751 27.5404C61.8548 27.7018 61.8904 27.1876 62.3701 27.1614C62.8517 27.1257 63.9722 27.0676 63.9722 26.5197C63.9722 25.9793 63.9048 25.7842 63.6762 25.7504C63.4569 25.7166 63.5169 25.4652 63.871 25.3376C64.2252 25.2025 64.2589 26.0037 64.3845 26.4596C64.5119 26.9081 64.6711 26.5872 64.8997 26.3583C65.1265 26.1388 66.307 25.2701 66.7548 25.3958C67.2101 25.5215 67.5549 25.4295 67.6917 25.8761C67.8172 26.3245 68.0121 25.8761 68.0121 25.6585C68.0121 25.4295 67.8772 24.3732 68.4581 24.1462C69.0314 23.9172 69.1926 23.951 69.453 24.1799C69.706 24.3995 69.8334 24.1462 69.9927 24.7203C70.152 25.3038 70.5061 25.0412 70.7947 24.8817C71.0889 24.7203 72.0164 23.8591 72.5898 23.8591C73.1725 23.8591 73.0114 23.5964 73.0114 23.5964C73.0114 23.5964 73.0114 23.1498 73.4911 23.632C73.9726 24.1124 73.7778 23.8947 74.2256 23.6658C74.6734 23.4388 75.1269 22.8628 75.2206 23.4388C75.3124 24.0223 75.6347 23.7915 75.8614 23.4125C76.09 23.0241 76.09 22.4406 76.7552 22.2211C77.4298 21.994 78.2655 21.707 78.391 21.4781C78.5259 21.2585 78.6534 21.1309 78.9044 21.1309C79.1668 21.1309 79.4516 21.0634 79.4516 20.8101C79.4516 20.5474 79.5116 20.1928 79.7383 20.675C79.965 21.1572 80.3117 21.8983 79.3504 22.2548C78.3892 22.6076 77.6209 22.6339 77.3005 22.6339C76.9801 22.6339 76.6596 22.54 76.8545 22.9885L77.3005 24.0186C77.3005 24.0186 76.4329 23.951 76.3055 24.3038C76.1781 24.6584 75.6984 25.4614 75.6647 26.0018C75.6309 26.5497 75.2862 26.0675 75.2862 25.8742C75.2862 25.681 74.8646 24.8535 74.5441 24.5908C74.2237 24.3375 74.1319 24.3375 74.0307 24.6246C73.9389 24.9117 73.4573 24.5571 73.3899 24.9117C73.3318 25.2663 73.0695 25.3939 72.7491 25.3939C72.4286 25.3939 71.8215 25.8405 72.3687 26.0675C72.9083 26.2964 73.4217 26.4822 73.4217 26.4822C73.4217 26.4822 74.0626 26.7111 73.2269 26.8368C72.3912 26.9625 71.4055 27.0319 71.0177 26.9625C70.6298 26.9043 69.989 26.8368 69.989 27.3772C69.989 27.925 69.8634 28.1127 69.5074 28.3059C69.1626 28.5011 68.934 28.7863 68.934 28.7863C68.934 28.7863 68.1658 28.3397 67.8116 28.2459C67.4575 28.1446 67.2982 28.3397 67.2645 28.6605C67.2307 28.9814 67.2982 29.2103 66.9778 29.3022C66.6574 29.3961 65.7879 29.5574 65.3757 29.7844C64.9616 30.0115 64.3807 30.1391 64.2196 30.5519C64.2196 30.5519 63.6462 30.3323 63.3258 30.7132C63.0053 31.1016 61.7237 31.8109 60.8898 31.8109C60.056 31.8109 58.0998 32.6139 57.4571 33.0248L57.2622 32.7396C57.2622 32.7396 55.3059 33.6346 55.3059 33.8954C55.3059 33.8954 54.5714 33.7603 53.8987 34.1487C53.2242 34.5371 53.1642 34.6309 53.4172 35.5015C53.4172 35.5015 52.2048 35.3402 51.9088 35.5935C51.6221 35.8468 50.7283 36.329 50.6608 36.7512C50.6009 37.164 50.213 36.8168 50.1811 36.5898C50.1455 36.3628 50.2149 36.1676 50.6027 36.0419C50.9831 35.9143 50.7882 35.5259 50.5015 35.5259C50.2149 35.5259 49.0925 35.8468 48.8657 36.0419C48.6465 36.2371 48.1312 36.4303 48.0319 36.1695C47.9382 35.9143 47.5241 36.0419 47.3667 36.3647C47.2056 36.6855 46.6584 37.0063 47.2318 37.1996C47.8145 37.3947 48.5809 37.5523 48.7421 37.4266C48.9013 37.3009 49.3829 36.4303 49.3829 36.7849C49.3829 37.1396 49.2236 37.6462 48.8695 37.8732C48.5153 38.1021 48.3879 37.6199 47.5278 37.7137C47.5278 37.7137 47.2337 38.0665 47.2337 38.3554C47.2337 38.3554 46.5928 38.7438 46.4317 38.9296C46.2724 39.1247 45.7908 38.7119 45.5379 38.6444C45.2756 38.5843 44.8296 38.4492 44.5766 38.7119C44.3143 38.9652 44.6366 39.2523 44.3143 39.3855C43.9939 39.5112 43.6135 40.121 42.9071 40.1548C42.2063 40.1886 40.6642 40.6351 40.4374 40.7608C40.2182 40.8884 39.7722 41.0479 39.7722 40.5075C39.7722 39.9596 39.3506 40.1191 39.2907 40.4738C39.2232 40.8265 39.2569 41.5038 38.7173 41.7571C38.1776 42.0104 37.6286 41.8829 37.3757 42.0442C37.1152 42.2037 35.7061 43.2338 35.3857 43.3952C35.0653 43.5565 31.5407 45.354 25.8312 47.6581L25.5108 47.3373C25.5689 47.4255 18.4616 51.7991 11.1932 54.6286Z" fill="#7B002B"/>
<path d="M33.6727 25.195V30.8952C33.9838 30.944 34.3042 30.9797 34.6077 30.8952C36.1255 30.4975 36.8001 28.9026 36.8001 27.3471V24.8648C36.8001 23.876 36.1592 23.2268 35.4603 23.2343C34.5141 23.253 34.0344 24.1649 33.6727 25.195ZM25.0889 29.1296L22.2295 30.5387C22.3063 29.6606 22.8872 28.5799 23.721 28.1652C24.2195 27.9232 25.0533 27.8462 25.0889 29.1296ZM32.3817 17.2489V5.66645C36.7401 2.06019 37.4484 7.41516 37.3903 9.526C37.3154 12.5975 36.2098 16.2526 32.3817 17.2489ZM60.6291 12.8846L57.779 14.2937C57.8465 13.4156 58.4292 12.3273 59.2706 11.922C59.769 11.6687 60.6028 11.5937 60.6291 12.8846ZM45.7137 19.6974V25.3977C46.0266 25.4558 46.3377 25.4821 46.6412 25.4052C48.159 24.9999 48.8411 23.405 48.8411 21.8496V19.3691C48.8411 18.3728 48.2002 17.7217 47.5013 17.7311C46.5569 17.748 46.066 18.6674 45.7137 19.6974Z" fill="white"/>
<path d="M71.7264 15.1548L71.8857 15.0798L71.6421 14.5563L72.0468 14.3705C72.2998 14.2523 72.3335 14.5131 72.4253 14.6482L72.519 14.7908L72.7139 14.6989C72.594 14.6238 72.6034 14.5901 72.519 14.4381C72.401 14.2355 72.3916 14.2092 72.223 14.1923C72.3073 14.0403 72.3242 13.9653 72.2473 13.8133C72.1049 13.5356 71.9026 13.5844 71.7171 13.6688L71.1699 13.9221L71.7264 15.1548Z" fill="#7B002B"/>
<path d="M71.7858 13.8133C71.8777 13.772 72.0388 13.7195 72.1138 13.9465C72.1737 14.1079 72.08 14.1829 71.9695 14.2336L71.5816 14.4137L71.3867 13.9897L71.7858 13.8133Z" fill="white"/>
</g>
<defs>
<clipPath id="clip0_65_895">
<rect width="80" height="57.3248" fill="white"/>
</clipPath>
</defs>
</svg>
