<svg width="80" height="59" viewBox="0 0 80 59" fill="none" xmlns="http://www.w3.org/2000/svg">
<g clip-path="url(#clip0_65_879)">
<path d="M34.438 58.7011C50.5969 58.7011 63.6963 45.5604 63.6963 29.3506C63.6963 13.1407 50.5969 0 34.438 0C18.2791 0 5.17969 13.1407 5.17969 29.3506C5.17969 45.5604 18.2791 58.7011 34.438 58.7011Z" fill="#F4991D"/>
<path d="M0 16.3114L16.0688 14.6288C16.0688 14.6288 10.3155 9.96445 9.69267 7.79947C9.69267 7.79947 9.45226 6.59914 11.37 5.96883C13.2878 5.33852 21.4397 2.12119 21.4397 2.12119C21.4397 2.12119 33.1922 -1.53461 38.7051 12.8036L48.5344 11.2634V12.8036L65.7998 12.3213L66.4226 18.3339H70.739L75.9186 36.2786L53.3807 53.8396C53.3807 53.8396 48.2011 58.312 36.8365 58.5532L3.89018 45.4208L0 16.3114Z" fill="#2F358C"/>
<path d="M11.7031 7.89263C11.7031 7.89263 18.276 5.39331 18.8005 4.86166C19.3742 4.28616 27.1928 1.34836 32.6128 6.06199C32.6128 6.06199 36.4484 9.81645 37.6504 14.3382L39.9506 19.0519L41.1472 21.2662C41.1472 21.2662 41.4805 22.0829 41.1472 22.2308C40.8139 22.3788 38.3662 18.4764 38.3662 18.4764L37.2625 16.8869C37.2625 16.8869 36.3009 15.6372 33.5198 16.2127C30.7388 16.7882 26.4716 17.2706 23.401 16.7444C20.385 16.1634 13.2821 10.1015 11.7031 7.89263Z" fill="#75B947"/>
<path d="M24.1714 16.695C21.1007 16.1634 14.0034 10.1014 12.4189 7.89261C12.4189 7.89261 18.9917 5.39329 19.5163 4.86164C19.8058 4.57115 22.3465 3.51332 25.51 3.42015C22.0569 3.32149 19.1338 4.5273 18.7951 4.86164C18.2268 5.43714 11.7031 7.89261 11.7031 7.89261C13.2876 10.1563 20.385 16.2182 23.4556 16.695C24.5101 16.8869 25.663 16.9362 26.8595 16.9362C25.8979 16.8869 24.9855 16.8375 24.1714 16.695Z" fill="#609744"/>
<path d="M17.457 9.57531C17.457 9.57531 20.4785 8.08448 22.1067 9.57531C25.3193 12.5076 32.2747 14.0478 33.6188 13.7628C33.6188 13.7628 26.6634 15.3523 24.6528 14.2451C22.0138 12.7981 20.4293 10.825 17.457 9.57531Z" fill="#609744"/>
<path d="M2.44824 18.4764L6.1909 44.215L11.7038 43.8313L10.8405 32.7652L16.3534 32.2829L15.6322 27.4706L10.1193 28.1941L9.63851 23.5298L16.3534 22.3295L15.3918 16.1689L2.44824 18.4764ZM31.1274 20.6413L33.7663 41.6663L38.8968 41.0908L38.1756 30.5071L46.5679 40.2248L50.5509 39.7425L47.4311 14.2451L41.7707 14.8699L42.9673 25.5523L36.3999 19.5342L31.1274 20.6413Z" fill="white"/>
<path d="M36.3991 20.0165L42.9719 26.0291L42.9228 25.4975L36.3991 19.5342L31.1211 20.6413L31.1703 21.0743L36.3991 20.0165ZM47.4303 14.7219L50.501 39.7425H50.5501L47.4303 14.2451L41.7699 14.8699L41.8683 15.3522L47.4303 14.7219ZM38.1748 30.9839L38.896 41.0854L38.2239 30.9839H38.1748Z" fill="#CDCBE6"/>
<path d="M48.873 15.2041L49.5888 20.8824L52.9435 20.9811L54.4788 38.6846L60.855 38.5421L60.2322 20.4987L64.6906 20.1644L63.8273 14.0038L48.873 15.2041Z" fill="white"/>
<path d="M49.4473 15.7798L54.0041 15.155L63.8333 13.9985L48.8682 15.1988L49.5894 20.8826H50.0702L49.4473 15.7798ZM53.5233 21.5567L52.9933 21.5074L54.4794 38.6848L55.0094 38.6354L53.5233 21.5567Z" fill="#CDCBE6"/>
<path d="M24.5103 19.293L19.0903 19.9179L16.79 43.3983L21.1064 43.1571L22.2101 36.9034L25.3299 36.5197L27.865 42.2911L32.4218 41.6663L24.5103 19.293ZM22.1117 32.9077L22.7346 28.8189H23.6962L25.1332 32.5734L22.1117 32.9077Z" fill="white"/>
<path d="M19.2326 20.1097L24.5542 19.3424L24.5051 19.293L19.1342 19.9179L16.834 43.349L17.7956 43.2997L19.2326 20.1097ZM28.7285 42.1432L26.0404 36.4649L25.4175 36.5635L27.8653 42.2912L32.422 41.6663V41.5238L28.7285 42.1432Z" fill="#CDCBE6"/>
<path d="M69.7338 20.8824L62.5381 21.9896L62.7785 38.0105L66.614 37.6268L66.8544 33.538L69.0126 33.2968L70.69 36.6621L74.7659 36.5196L69.7338 20.8824ZM68.0073 30.1179C66.6632 30.2165 66.3299 29.4437 66.0895 28.6764L69.2093 28.342C69.2093 28.3366 69.3514 30.0192 68.0073 30.1179Z" fill="white"/>
<path d="M63.4997 22.324L69.9742 21.6005L69.7338 20.8332L62.5381 21.9403L62.7785 37.9119H63.1118L63.4997 22.324ZM69.8759 29.0108L69.111 29.0601C69.0126 29.5425 68.7285 30.0686 67.9581 30.118C67.5757 30.1673 67.2369 30.0686 66.9965 29.9755C67.2369 30.4085 67.6685 30.7428 68.581 30.7428C69.9251 30.6935 69.8759 29.0108 69.8759 29.0108ZM69.4934 33.8724L69.3514 33.9218L70.6954 36.6184H70.7446L69.4934 33.8724Z" fill="#C6C3E1"/>
<path d="M3.64453 27.1856L6.33269 44.215L7.43636 44.1163L4.31657 27.6625L3.64453 27.1856Z" fill="#CDCBE6"/>
<path d="M77.5521 34.3985L77.1205 34.4972L77.0713 34.3547L78.0766 34.1628L78.1258 34.3054L77.6942 34.404L77.8854 35.6537L77.6942 35.703L77.5521 34.3985ZM79.7103 34.689C79.6611 34.4972 79.612 34.256 79.5683 34.1135C79.5683 34.3054 79.5191 34.4479 79.4699 34.689L79.3278 35.4125H79.1858L78.8525 34.7877C78.7541 34.5958 78.6613 34.4533 78.6121 34.256C78.6613 34.4479 78.6613 34.6397 78.7104 34.8809L78.7596 35.4564L78.5684 35.5057L78.4263 34.108L78.6667 34.0587L79 34.6835C79.0984 34.826 79.1421 34.974 79.2404 35.1165C79.2404 34.974 79.2896 34.826 79.2896 34.6342L79.4317 33.9107L79.6721 33.8614L80.0054 35.2097L79.8141 35.259L79.7103 34.689Z" fill="#2F358C"/>
</g>
<defs>
<clipPath id="clip0_65_879">
<rect width="80" height="58.6957" fill="white"/>
</clipPath>
</defs>
</svg>
