<svg width="80" height="31" viewBox="0 0 80 31" fill="none" xmlns="http://www.w3.org/2000/svg">
<g clip-path="url(#clip0_65_871)">
<path d="M15.2258 30.3374C6.90682 30.3374 0.138672 23.5637 0.138672 15.2386C0.138672 6.91264 6.90682 0.139282 15.2258 0.139282C23.5446 0.139282 30.3125 6.91292 30.3125 15.2386C30.3125 23.5637 23.5446 30.3374 15.2258 30.3374Z" fill="white"/>
<path d="M15.2258 0.277937C23.4811 0.277937 30.1738 6.97583 30.1738 15.2385C30.1738 23.5012 23.4811 30.1988 15.2258 30.1988C6.97005 30.1988 0.277338 23.5009 0.277338 15.2385C0.277338 6.9761 6.97005 0.277937 15.2258 0.277937ZM15.2258 0.000488281C6.83027 0.000488281 0 6.83627 0 15.2385C0 23.6411 6.83027 30.4763 15.2258 30.4763C23.6211 30.4763 30.4511 23.6402 30.4511 15.2385C30.4511 6.83627 23.6211 0.000488281 15.2258 0.000488281Z" fill="#004883"/>
<path d="M79.7204 9.10215C79.8882 8.90627 80.0005 8.68293 80.0005 8.40298C80.0026 8.12511 79.903 7.85608 79.7204 7.64666C79.5237 7.45022 79.2733 7.33813 78.9924 7.33813C78.7134 7.33813 78.4898 7.4505 78.2649 7.64666C78.0699 7.84281 77.9848 8.09474 77.9848 8.40298C77.9848 8.68293 78.0699 8.90627 78.2649 9.10215C78.4898 9.29831 78.7134 9.3821 78.9924 9.3821C79.2733 9.3821 79.5237 9.29831 79.7204 9.10215ZM79.7772 19.4063V10.3623H78.2652L78.2938 19.4063H79.7772ZM76.2778 10.8107L76.0265 10.6983C75.3545 10.306 74.5425 10.1104 73.5635 10.1104C72.4996 10.1104 71.6321 10.362 70.9884 10.8662C70.6526 11.1184 70.4285 11.37 70.2607 11.7066C70.0932 12.0143 70.0083 12.3222 70.0083 12.686C70.0083 13.3022 70.289 13.806 70.7932 14.2538C71.2682 14.6742 71.9677 15.0101 72.8915 15.2898C73.6747 15.5417 74.2066 15.7939 74.5425 16.0461C74.8229 16.3264 74.9909 16.6341 74.9909 17.0258C74.9909 17.4459 74.7669 17.7819 74.3744 18.0621C73.9823 18.2863 73.422 18.4261 72.7234 18.4261C71.9671 18.4261 71.2122 18.2299 70.4285 17.8654L70.2324 17.7261L69.5887 18.9016L69.8133 19.0137C70.6806 19.4338 71.6327 19.6294 72.668 19.6294C73.7876 19.6294 74.7111 19.4055 75.4386 18.9016C75.8024 18.6775 76.0545 18.3701 76.2506 18.0624C76.4456 17.6983 76.5302 17.3058 76.5302 16.914V16.8851C76.5302 16.2134 76.2506 15.6253 75.7187 15.1497C75.2713 14.7582 74.5433 14.4217 73.5915 14.142C72.8635 13.889 72.3321 13.6373 72.024 13.4415C71.6881 13.189 71.5483 12.9096 71.5483 12.6016C71.5483 12.2373 71.6881 11.9579 71.9968 11.706C72.3321 11.4816 72.7792 11.3414 73.3674 11.3414C74.1792 11.3414 74.8509 11.4816 75.3828 11.8175L75.5789 11.9577L76.2778 10.8107ZM67.1542 11.4824C66.1186 10.5865 64.8315 10.1107 63.3472 10.1107C61.892 10.1107 60.6886 10.5582 59.7094 11.4263C58.6172 12.4068 58.0581 13.7503 58.0581 15.5143V22.542H59.5127V18.0063C59.9609 18.5099 60.5214 18.9022 61.1926 19.1827C61.8643 19.4901 62.5917 19.6299 63.376 19.6299C64.8592 19.6299 66.1186 19.1827 67.1542 18.2297C68.2181 17.3058 68.7489 16.1863 68.7489 14.8698C68.7489 13.5261 68.2181 12.4066 67.1542 11.4824ZM63.3472 11.37C64.4394 11.37 65.3903 11.7066 66.1178 12.378C66.8741 13.05 67.266 13.8895 67.266 14.8986C67.266 15.8497 66.9296 16.6338 66.2581 17.3058C65.5307 18.0058 64.5511 18.3701 63.3758 18.3701C62.1993 18.3701 61.2475 18.006 60.4923 17.3058C59.7931 16.6063 59.4575 15.8222 59.4575 14.8986C59.4575 13.9739 59.7934 13.1623 60.4923 12.4898C61.2206 11.7623 62.1724 11.37 63.3472 11.37ZM55.7346 11.9307C54.7558 10.6983 53.3561 10.1104 51.4805 10.1104C50.081 10.1104 48.8768 10.5024 47.8418 11.342C46.7228 12.2101 46.1631 13.3865 46.1631 14.8423C46.1631 15.6541 46.3866 16.4662 46.8623 17.222C47.2827 17.9497 47.9261 18.5382 48.7939 18.9857C49.6611 19.406 50.5847 19.6016 51.5922 19.6016C52.5441 19.6016 53.4393 19.406 54.3077 18.9857C55.1743 18.5382 55.8183 17.9497 56.2382 17.222L56.5183 16.7459H54.8953C54.5589 17.222 54.0825 17.6143 53.4679 17.922C52.8522 18.2297 52.1805 18.3701 51.5365 18.3701C50.641 18.3701 49.8852 18.1453 49.2133 17.6975C48.5415 17.2217 48.0942 16.6338 47.8141 15.8497C48.7371 15.4857 49.6612 15.2895 50.6693 15.2895L52.1805 15.4571L54.5312 15.6816C55.2587 15.6816 55.8755 15.5695 56.4343 15.4019C56.6587 15.3176 56.7982 15.2055 56.8547 15.0654C56.9382 14.9535 56.9382 14.7582 56.883 14.5332C56.7141 13.5261 56.3505 12.6585 55.7346 11.9307ZM55.3435 14.2272L55.3713 14.2827L54.5592 14.3945L52.7962 14.2269L50.3331 14.0302H49.9132C49.1295 14.0862 48.402 14.2269 47.702 14.4783C47.8135 13.442 48.318 12.6296 49.1578 12.0423C49.8569 11.5936 50.6413 11.342 51.4805 11.342C52.7953 11.342 53.8035 11.7621 54.5592 12.6022C54.9514 13.1066 55.2306 13.6382 55.3435 14.2272ZM39.6412 10.1104C38.2138 10.1104 36.9824 10.5579 36.0028 11.4261C34.9112 12.4066 34.3793 13.75 34.3793 15.5137L34.3516 22.5415H35.8631L35.8348 18.0058C36.2827 18.5096 36.8423 18.9016 37.4863 19.1821C38.1858 19.4898 38.9138 19.6291 39.6972 19.6291C41.1807 19.6291 42.4401 19.1821 43.476 18.2294C44.5393 17.3055 45.0429 16.1854 45.0429 14.8692C45.0429 13.5252 44.5393 12.4057 43.5034 11.4816C42.4401 10.5862 41.1807 10.1104 39.6412 10.1104ZM36.7866 12.4901C37.5423 11.7623 38.4661 11.37 39.6412 11.37C40.7611 11.37 41.6846 11.7066 42.4396 12.378C43.1961 13.05 43.5592 13.8895 43.5592 14.8986C43.5592 15.8497 43.2239 16.6338 42.5793 17.3058C41.8524 18.0058 40.9006 18.3701 39.6692 18.3701C38.5216 18.3701 37.5423 18.006 36.7863 17.3058C36.1146 16.6063 35.7787 15.8222 35.7787 14.8986C35.779 13.9742 36.1146 13.1626 36.7866 12.4901Z" fill="#004883"/>
<path d="M23.7736 3.9022C23.6451 3.8049 23.5232 3.69924 23.4086 3.58591C21.0146 1.89659 18.1557 0.991686 15.226 0.995925C7.36711 0.995925 0.996108 7.37225 0.996108 15.2379C0.991763 18.303 1.97964 21.2871 3.81192 23.7437C8.57381 22.337 12.7283 19.8896 16.2888 16.3524C19.8448 12.8322 22.3436 8.66572 23.7736 3.9022Z" fill="#E32934"/>
<path d="M15.2262 29.48C23.0846 29.48 29.4556 23.1028 29.4556 15.2377C29.4556 12.4535 28.6568 9.85742 27.2774 7.66419C27.2411 7.62802 27.2086 7.58833 27.1803 7.54572C27.4698 8.5016 27.6165 9.49507 27.6154 10.4939C27.6154 12.11 27.2421 13.6396 26.5089 15.0718C25.7837 16.4319 24.7643 17.6131 23.525 18.5291C22.5304 19.2629 21.3368 19.885 19.9315 20.3949C18.813 20.8044 17.3581 21.2278 15.5557 21.6376L10.3584 22.8076C8.14882 23.3142 6.13646 23.8564 4.34375 24.4115C6.95377 27.5115 10.8598 29.48 15.2262 29.48Z" fill="#004883"/>
</g>
<defs>
<clipPath id="clip0_65_871">
<rect width="80" height="30.4762" fill="white"/>
</clipPath>
</defs>
</svg>
