<svg width="80" height="49" viewBox="0 0 80 49" fill="none" xmlns="http://www.w3.org/2000/svg">
<g clip-path="url(#clip0_65_905)">
<path d="M38.9558 25.2813C39.0265 25.2947 39.0972 25.3072 39.1677 25.3197L38.9558 25.2813ZM39.5339 25.3773C39.6162 25.3896 39.6986 25.4004 39.7811 25.4113L39.5339 25.3773ZM40.1452 25.4504C40.2256 25.4577 40.3056 25.4646 40.386 25.4707L40.1452 25.4504ZM40.4721 25.4766C40.54 25.4816 40.6079 25.4856 40.6758 25.4891L40.4721 25.4766ZM40.7747 25.4943C40.8551 25.4978 40.9355 25.5009 41.0159 25.5035L40.7747 25.4943ZM41.0959 25.5044C41.2756 25.5092 41.4553 25.5094 41.635 25.5049L41.0959 25.5044ZM41.7209 25.5035C41.8047 25.501 41.8884 25.4978 41.9721 25.4938L41.7209 25.5035ZM42.0511 25.4901C42.1238 25.486 42.1952 25.4816 42.2673 25.4766L42.0511 25.4901ZM42.3423 25.4714C42.4209 25.4655 42.4996 25.4589 42.5777 25.4516L42.3423 25.4714ZM42.9806 25.4068C43.0411 25.3997 43.1012 25.3919 43.1611 25.3825L42.9806 25.4068ZM54.0177 5.16091C53.9526 5.12591 53.8858 5.0941 53.8176 5.0656L54.0177 5.16091ZM53.3619 4.9257C53.2783 4.90861 53.1938 4.89569 53.1088 4.88701L53.3619 4.9257ZM69.0711 17.161L69.0254 17.1674L69.0711 17.161ZM10.4282 13.606C10.1371 13.3395 9.9158 13.006 9.78382 12.6345C9.67642 12.3243 9.53733 11.9367 9.53733 11.6076C9.54419 10.1236 10.4126 9.02144 11.3475 8.51115C11.7723 8.27948 11.9301 8.12048 11.9949 8.03885C11.9638 8.02514 11.9306 8.01669 11.8968 8.01384C10.6243 8.01384 9.97188 7.52078 9.65158 7.10344C9.34808 6.71253 9.19313 6.20861 9.19313 5.65751C9.19313 5.38975 9.23098 5.10948 9.3055 4.82284C9.66412 4.2321 10.0048 4.39441 10.2134 4.69662C10.3464 4.88583 11.2573 5.52988 12.3798 5.63203C13.1967 5.70941 13.6369 6.10787 13.8659 6.42613C14.1299 6.79463 14.2311 7.23862 14.2311 7.61632C14.2311 7.77085 14.2136 7.91594 14.1803 8.04498C14.0573 8.54277 13.5314 8.99148 12.799 9.5631L12.3836 9.9066C11.7754 10.4374 11.4407 11.0281 11.4407 11.5288C11.4407 11.6538 11.4627 11.7758 11.505 11.8883C11.5225 11.9345 11.5436 11.9791 11.5684 12.0214C11.8402 12.4802 12.6083 12.768 13.7225 12.3792C14.2375 12.2011 15.2289 11.5788 15.8343 10.9803C16.5466 10.2716 17.4973 10.1015 18.4128 10.0293C19.2067 9.96959 19.6954 9.77543 20.0396 9.38947C21.0568 8.24646 22.0357 8.0858 22.9519 8.01785C23.3024 7.99096 23.3214 7.96595 23.367 7.90438C23.8721 7.23367 24.3908 6.87861 24.8564 6.67195C25.2112 6.51459 25.5353 6.44288 25.8007 6.38484L26.1229 6.30581L26.2034 6.2775C26.7134 6.11377 27.1082 5.97812 28.1457 5.27886L28.19 5.25103L28.1902 5.25055L28.2337 5.22342L28.2342 5.22319L28.278 5.19747L28.2787 5.19724L28.3224 5.17223L28.3232 5.17199L28.3672 5.14887L28.3686 5.1484L28.4121 5.12575L28.4135 5.12528L28.4573 5.10405L28.4592 5.10358L28.5032 5.08329L28.5048 5.08235L28.5491 5.06394L28.551 5.06324L28.595 5.04507L28.5973 5.0446L28.6416 5.02809L28.6437 5.02691L28.6875 5.01134L28.7341 4.99576L28.7371 4.99506L28.7807 4.98114L28.7835 4.98043L28.8277 4.96769L28.8308 4.96698L28.8746 4.95495L28.8779 4.95401L28.9219 4.94363L28.9259 4.94268L28.9692 4.93278L28.9727 4.93183L29.017 4.92287L29.0208 4.92192L29.0645 4.9139L29.0686 4.91319L29.1123 4.90588L29.1163 4.90541L29.1596 4.89904L29.1641 4.8981L29.2077 4.89314L29.2121 4.8922L29.255 4.88748L29.2597 4.88724L29.303 4.88323L29.308 4.88276L29.351 4.87969L29.356 4.87922L29.3983 4.87663L29.4033 4.87639L29.4461 4.8745L29.4939 4.87309H29.4989L29.5414 4.87262H29.5944L29.6365 4.87309L29.6415 4.87332H29.6465C29.6767 4.87403 29.707 4.87592 29.7373 4.87757L29.7789 4.88017L29.7849 4.88064L29.8258 4.8837L29.8319 4.88418L29.8729 4.88819L29.8792 4.88889L29.9199 4.8929L29.9266 4.89338L29.967 4.89833L29.9734 4.89927L30.0136 4.90423L30.0205 4.90541L30.0602 4.91131L30.0668 4.91249L30.1068 4.91862L30.1139 4.92004L30.1529 4.92688L30.1603 4.92806L30.1991 4.93513L30.2062 4.93679C30.2681 4.94835 30.3292 4.96203 30.389 4.97666L30.4266 4.98609L30.4342 4.98821C30.4945 5.00379 30.5541 5.0203 30.6128 5.03776L30.6476 5.04861L30.6561 5.0512C30.7725 5.08777 30.8853 5.12906 30.9946 5.1727L31.0254 5.18544L31.0656 5.20196C33.2845 2.19567 36.7927 0.195339 40.7799 0.0143909V0.0134472C40.9762 0.00464571 41.1726 0.000162209 41.3691 0C41.499 8.52503e-05 41.6289 0.00205143 41.7587 0.00589791C41.8233 0.00802116 41.8879 0.0106162 41.9522 0.0132113H41.953C42.0168 0.0162782 42.0814 0.0193451 42.1455 0.0233557C46.0038 0.254554 49.4017 2.19237 51.5901 5.08966C51.9026 4.98137 52.243 4.90281 52.5905 4.87922L52.5998 4.87875L52.6326 4.87663L52.6669 4.87498L52.6752 4.8745L52.6842 4.87427L52.7178 4.87332L52.7268 4.87285L52.7604 4.87262L52.7694 4.87238L52.8037 4.87214H52.8119L52.8462 4.87238H52.8548L52.8971 4.87309L52.9316 4.8745L52.9392 4.87474L52.9738 4.87639L52.9818 4.87686L53.0166 4.87922L53.0232 4.87969L53.0584 4.88252L53.0653 4.883L53.1008 4.88654L53.1072 4.88724C53.1921 4.89591 53.2766 4.90882 53.3603 4.92593L53.3974 4.93348L53.4024 4.93466L53.4391 4.94339L53.4443 4.94433L53.4812 4.95377L53.4861 4.95495L53.5235 4.96486L53.5275 4.96604L53.5659 4.97666L53.5694 4.97784L53.6068 4.98939L53.611 4.99057L53.6491 5.00308L53.6524 5.00402L53.6936 5.01841L53.7322 5.0321L53.7345 5.03328L53.7728 5.04814L53.7752 5.04908L53.8142 5.06465L53.8166 5.06583C53.884 5.09414 53.9507 5.12552 54.0167 5.16114L54.0179 5.16185L54.057 5.18261L54.0574 5.18308L54.0965 5.20549L54.0972 5.20573L54.1362 5.22932L54.1367 5.22956L54.1752 5.25386V5.25409L54.2143 5.2791C54.9291 5.76367 55.3422 5.97718 55.6946 6.1166C55.8531 6.17959 56.0003 6.22701 56.1564 6.27773L56.2385 6.30604L56.564 6.38508C56.7405 6.42377 56.942 6.46835 57.1604 6.5396C57.7066 6.71701 58.3592 7.06145 58.9925 7.90461C59.0384 7.96619 59.0587 7.99119 59.411 8.01809C60.3262 8.08627 61.3035 8.24669 62.3249 9.38971C62.6665 9.77567 63.1529 9.96959 63.9465 10.0295C64.8675 10.1017 65.8151 10.2716 66.526 10.9805C67.132 11.579 68.1223 12.2014 68.6387 12.3795C69.7524 12.7683 70.5243 12.4804 70.7897 12.0216C70.8479 11.9249 70.8869 11.8185 70.9068 11.7059C70.9172 11.6475 70.9225 11.5883 70.9226 11.529C70.9226 11.0284 70.5874 10.4376 69.9809 9.90684L69.9054 9.84432L69.5615 9.56334C68.8319 8.99172 68.3058 8.543 68.179 8.04522C68.1457 7.91617 68.1312 7.77108 68.1312 7.61656C68.1312 7.23862 68.2349 6.79486 68.4937 6.42636C68.7243 6.10811 69.1693 5.70965 69.9809 5.63227C71.1093 5.53012 72.0153 4.88606 72.1478 4.69686C72.36 4.39465 72.6973 4.23234 73.0545 4.82307C73.1302 5.10971 73.1681 5.38998 73.1681 5.65775C73.1681 6.21191 73.0131 6.71276 72.7098 7.10368C72.3874 7.52101 71.7371 8.01408 70.4625 8.01408C70.4356 8.01408 70.3979 8.02658 70.3665 8.03909C70.4296 8.12095 70.5874 8.27996 71.0132 8.51139C71.9481 9.02191 72.8175 10.1241 72.8253 11.6078C72.8253 11.9369 72.6878 12.3243 72.5769 12.6347C72.461 12.9604 72.2771 13.2578 72.0375 13.5074C72.0051 13.5409 71.9713 13.5739 71.9356 13.6062C71.409 14.0941 70.5318 14.477 69.0704 14.39C68.9165 14.3806 68.7629 14.3667 68.6098 14.3484C68.572 15.0838 68.3697 15.9579 68.0851 16.3988C67.9985 16.5373 67.9815 16.6302 67.9815 16.6757C67.9815 16.6949 67.9834 16.7059 67.9834 16.714C67.9924 16.717 68.6318 17.0933 68.6318 17.0933L68.7349 17.1455C68.7349 17.1455 68.795 17.1738 68.8028 17.1801C68.8121 17.1768 69.0238 17.1674 69.0238 17.1674L69.0657 17.1615L69.0699 17.161C69.4697 17.123 70.0802 16.9279 70.3398 17.6508C70.4076 17.8426 70.449 18.0096 70.4881 18.1575C70.5673 18.46 70.6352 18.6846 70.9006 18.8886C70.9006 18.8886 71.0319 18.7763 71.181 18.6442C71.2961 18.5428 71.409 18.4389 71.5195 18.3326C71.7045 18.1436 72.0468 18.2396 72.2935 18.3326C72.5431 18.427 72.852 18.6414 73.0704 18.7655C73.2901 18.8884 73.4112 19.0443 73.4744 19.2305C73.5404 19.4162 73.693 19.5391 73.9258 19.662C74.1505 19.7894 74.4727 20.1975 74.4727 20.7484C74.4727 20.8328 74.4821 20.905 74.506 20.9817C74.5224 21.0324 74.5446 21.0853 74.5751 21.1454C74.8893 21.777 74.6371 22.095 74.4552 22.229C74.2106 22.4116 73.7791 22.4871 73.3736 22.421L73.3769 22.5248L72.7848 22.446C72.5554 22.4175 72.2528 22.476 72.0721 22.5135L72.0295 22.5248C71.6079 22.6083 71.0568 22.4661 70.7471 21.9645C70.7358 21.9459 70.7244 21.9272 70.7138 21.9074C70.5557 21.6307 70.3097 21.3738 70.1893 21.3028C70.0154 21.3504 69.7408 21.4151 69.4139 21.3818C69.1106 21.3514 68.7607 21.2353 68.4049 20.9414C68.346 20.8925 68.2867 20.8385 68.2278 20.78C67.705 20.257 67.0152 20.1499 66.5815 20.2161L66.323 20.2619C65.7893 20.3582 65.1227 20.4808 64.5069 20.1062C64.3536 20.013 64.1327 19.917 63.916 19.8257C63.357 19.5829 62.7791 19.3326 62.7003 18.8049C62.6871 18.7108 62.5849 18.5388 62.5009 18.4019C62.4271 18.2809 62.3467 18.1486 62.2845 18.0068C62.2246 17.8714 62.1816 17.7272 62.1775 17.5767C61.9945 17.6237 61.8054 17.6429 61.6167 17.6338C61.55 17.6305 61.4835 17.6239 61.4175 17.6142L61.1748 17.5767C60.7658 17.5071 59.9092 17.3667 59.6364 17.4661C59.0933 17.6614 57.3842 17.7558 56.9155 17.6489C56.9155 17.6489 56.7431 17.6112 56.5806 17.5767C56.4244 17.7374 56.2503 17.8881 56.0672 18.0224C56.4102 18.041 56.7118 17.9985 56.9191 18.0518L57.3496 18.1651C57.4871 18.1245 57.8232 18.1292 58.0141 18.1465L58.5184 18.1842L59.0938 18.2394C59.371 18.2948 59.6653 18.4142 59.6149 18.9559C59.5955 19.1229 59.5018 19.3591 59.3608 19.4978C59.2832 19.5827 58.9826 20.0175 58.9166 20.1543L58.8951 20.197C58.778 20.4459 58.6043 20.6745 58.0988 20.6745C58.0346 20.6737 57.9704 20.6762 57.9065 20.6821C57.8911 20.7229 57.8497 20.7986 57.8497 20.7986C57.7359 21.0567 57.5715 21.416 57.2574 21.6239L57.1734 21.684C56.9212 21.8635 56.5011 22.1594 55.8579 21.9265L55.6365 21.8475C55.0758 21.646 54.228 21.3438 53.8 21.1105L53.74 21.0775C53.3414 20.86 53.2531 20.8163 53.1084 20.8366L53.0279 20.8491C52.7223 20.8918 52.146 20.969 51.7477 20.3103L51.7112 20.2532C49.8223 22.8388 46.9831 24.6896 43.7063 25.2938L43.6919 25.2968C43.5802 25.3171 43.4676 25.336 43.355 25.3537L43.3132 25.3598L43.1592 25.3825C43.0993 25.3914 43.0392 25.3995 42.9787 25.407L42.8689 25.4207L42.6958 25.4393L42.5758 25.4518C42.4978 25.4591 42.419 25.4658 42.3404 25.4717L42.2659 25.4766C42.1938 25.4816 42.1223 25.4863 42.0497 25.4901L41.9707 25.4943C41.887 25.4983 41.8037 25.5014 41.7195 25.504L41.6341 25.5054C41.4544 25.5098 41.2746 25.5097 41.095 25.5049L41.0145 25.504C40.9341 25.5014 40.8536 25.4983 40.7732 25.4948L40.6748 25.4893C40.6069 25.4856 40.539 25.482 40.4712 25.4768L40.3848 25.4712C40.3045 25.465 40.2242 25.4582 40.144 25.4509L40.0252 25.4386L39.8679 25.4216L39.7802 25.4115C39.6976 25.4014 39.6152 25.39 39.533 25.3773L39.4334 25.3627L39.2574 25.3353L39.1668 25.3202C39.096 25.3077 39.0253 25.2954 38.9548 25.2817L38.8022 25.2513L38.7242 25.2355C38.6198 25.2129 38.5148 25.1904 38.4112 25.1654L38.3838 25.1591L38.2208 25.1194L38.137 25.098C38.0398 25.073 37.9431 25.0461 37.8465 25.0192L37.812 25.009C34.9388 24.1824 32.4835 22.3778 30.8283 19.9809L30.6104 20.3117C30.2159 20.9704 29.6408 20.893 29.3311 20.8505L29.2507 20.838C29.1064 20.8177 29.0151 20.8614 28.6203 21.0789L28.5569 21.1119C28.1304 21.3452 27.2858 21.6474 26.7221 21.8489L26.5002 21.928C25.8575 22.1608 25.436 21.8645 25.1885 21.6854L25.1017 21.6253C24.7873 21.4177 24.6246 21.0584 24.5091 20.8C24.5091 20.8 24.4713 20.7243 24.4528 20.6835C24.3887 20.6776 24.3244 20.6751 24.26 20.6759C23.7592 20.6759 23.5806 20.4473 23.4654 20.1984L23.4451 20.1557C23.3772 20.0189 23.0803 19.5841 22.9982 19.4992C22.8594 19.3607 22.7607 19.1243 22.7451 18.9573C22.6931 18.4156 22.9914 18.2963 23.266 18.2408L23.8416 18.1856L24.3468 18.1479C24.5347 18.1306 24.8711 18.1259 25.0083 18.1665L25.4393 18.0533C25.6444 17.9999 25.9491 18.0424 26.289 18.0238C26.1083 17.8872 25.9373 17.7383 25.7773 17.5781C25.6129 17.6126 25.4421 17.6503 25.4421 17.6503C24.9721 17.7572 23.266 17.6628 22.7262 17.4675C22.4518 17.3682 21.5959 17.5083 21.185 17.5781L20.9385 17.6156C20.687 17.6542 20.4303 17.6414 20.1839 17.5781C20.1709 17.8865 20.0034 18.1665 19.8598 18.4034C19.7763 18.5402 19.6706 18.7122 19.6578 18.8063C19.584 19.3341 18.999 19.5844 18.4416 19.8271C18.2252 19.9184 18.0075 20.0144 17.8531 20.1076C17.2418 20.4823 16.5721 20.3596 16.0368 20.2633L15.7775 20.2176C15.3463 20.1513 14.656 20.2584 14.132 20.7814C13.3308 21.5786 12.5336 21.4033 12.1705 21.3042C12.0503 21.3752 11.8026 21.6321 11.6458 21.9088C11.343 22.4571 10.7646 22.6128 10.3289 22.5262L10.2851 22.5149C10.1062 22.4774 9.80747 22.4189 9.57872 22.4474L8.98307 22.5262L8.98945 22.4224C8.58186 22.4885 8.14896 22.4128 7.90341 22.2304C7.72292 22.0964 7.47004 21.7784 7.78939 21.1468C7.86344 20.9954 7.88875 20.8902 7.88875 20.7498C7.88875 20.1987 8.20834 19.7908 8.4326 19.6634C8.66774 19.5405 8.82244 19.4176 8.88537 19.2319C8.94711 19.0458 9.06823 18.8898 9.28823 18.7669C9.50586 18.6428 9.81552 18.4284 10.0637 18.334C10.3113 18.2411 10.6536 18.145 10.8403 18.334C11.0284 18.5166 11.4591 18.8898 11.4591 18.8898C11.8544 18.5855 11.8166 18.2347 12.0214 17.6517C12.2776 16.9289 12.8905 17.124 13.2884 17.162L13.3341 17.1683C13.3341 17.1683 13.5486 17.1778 13.555 17.1811C13.5662 17.1747 13.6262 17.1464 13.6262 17.1464L13.7258 17.0943C13.7258 17.0943 14.3683 16.718 14.3747 16.7149C14.3776 16.7071 14.3776 16.6958 14.3776 16.6767C14.3776 16.6312 14.3619 16.5382 14.2751 16.3997C13.9894 15.9586 13.7873 15.0847 13.7507 14.3494C13.6475 14.3616 13.5479 14.3718 13.45 14.3796C11.8939 14.5041 10.9692 14.1116 10.4282 13.606Z" fill="#F8EE3F"/>
<path d="M14.2594 13.8122C14.2594 13.8122 14.1298 15.0638 14.6952 16.1667C14.6952 16.1667 15.1141 16.7588 14.6791 17.1391L13.813 17.6411C13.813 17.6411 13.6967 17.7275 13.3104 17.6982C13.3104 17.6982 12.7764 17.5664 12.5981 17.8016C12.5981 17.8016 12.4431 18.2538 12.2492 18.6266C12.2492 18.6266 11.8548 19.5301 11.2021 19.8196C11.2021 19.8196 10.682 19.9385 10.5242 20.3884C10.5242 20.3884 10.3565 20.704 10.0205 20.718C10.0205 20.718 9.77002 20.7972 9.6042 21.3538C9.6042 21.3538 9.51383 21.7138 9.51856 21.9898C9.51856 21.9898 9.94579 21.9339 10.2242 22.0344C10.2242 22.0344 10.9088 22.2637 11.2149 21.7013C11.2149 21.7013 11.8063 20.6913 12.2449 20.8432C12.2449 20.8432 13.1258 21.1372 13.748 20.496C13.748 20.496 14.6027 19.5648 15.8098 19.7564C15.8098 19.7564 17.1696 20.031 17.5937 19.7181C17.5937 19.7181 18.4513 19.2711 18.773 19.1602C18.773 19.1602 19.1666 19.0448 19.2073 18.615C19.2073 18.615 19.4467 18.0103 19.6208 17.8089L18.9722 17.8016C18.9722 17.8016 18.3848 18.7867 17.3867 19.0838C17.3867 19.0838 16.841 19.3013 15.7455 19.1246C15.7455 19.1246 14.1726 18.7693 12.7911 20.2572C12.7911 20.2572 12.6023 20.5292 12.3329 20.4205C12.3329 20.4205 13.0963 19.1222 14.7723 18.8146C14.7723 18.8146 15.3209 18.6983 15.7784 18.7724C15.7784 18.7724 18.0359 18.8384 19.0826 16.622C19.0826 16.622 18.9693 14.7323 19.4692 14.2848C19.4692 14.2848 19.6622 14.2258 19.6236 14.5912C19.6236 14.5912 19.2802 16.5708 19.9252 16.9541C19.9252 16.9541 20.2997 17.2476 20.9926 17.1391C20.9926 17.1391 22.0429 16.8888 22.8967 17.0346C22.8967 17.0346 24.2096 17.3453 25.3377 17.2016C25.3377 17.2016 25.0448 16.7543 25.1023 16.2195C25.1023 16.2195 25.2639 15.8366 25.4491 16.0829C25.4491 16.0829 25.8832 17.513 27.0696 17.9422C27.0696 17.9422 28.1291 18.3269 28.1118 19.6672C28.1118 19.6672 27.9496 19.851 26.5446 20.3487C26.5446 20.3487 26.0197 20.5141 25.8506 20.123C25.8506 20.123 25.1731 18.6768 24.5833 18.7214L23.476 18.811C23.476 18.811 23.0982 18.9075 23.3764 19.2095C23.3764 19.2095 23.7556 19.7122 23.9105 20.0123C23.9105 20.0123 23.9557 20.2688 24.312 20.2143C24.312 20.2143 24.8062 19.9701 25.0848 20.8869C25.0848 20.8869 25.3398 21.3453 25.7716 21.4918C25.7716 21.4918 26.1754 21.6262 26.5543 21.4141C26.5543 21.4141 28.3832 20.7446 28.7016 20.5073C28.7016 20.5073 29.0971 20.2865 29.4108 20.3926C29.4108 20.3926 29.9594 20.5231 30.1853 20.0914L30.7521 19.2168C30.7521 19.2168 30.8765 19.0014 30.8592 18.7308C30.8592 18.7308 30.9106 18.4628 30.6839 18.1904C30.6839 18.1904 30.4698 17.9646 30.436 17.8011L30.032 16.8541C30.032 16.8541 29.8683 16.6012 29.6885 16.4972L29.1491 16.5366C29.1491 16.5366 29.5203 17.4826 29.7921 17.8681C29.7921 17.8681 30.16 18.4291 30.1413 18.7858C30.1413 18.7858 30.1169 19.0359 30.018 19.1401C30.018 19.1401 29.8936 19.3388 29.8434 19.4353C29.8434 19.4353 29.68 19.7892 29.5473 19.8677C29.5473 19.8677 29.3178 20.0031 29.262 20.0086C29.262 20.0086 29.1621 20.0362 29.2362 19.8578C29.2362 19.8578 29.5385 19.2234 29.5186 18.8842C29.5186 18.8842 29.5773 18.5308 29.3266 18.3239C29.3266 18.3239 28.7389 17.3989 28.6547 17.1224C28.6547 17.1224 28.4705 16.7524 28.3723 16.689C28.3723 16.689 28.1669 16.4198 28.4984 16.2938C28.4984 16.2938 29.324 16.1079 29.4718 16.0069C29.4718 16.0069 29.8688 15.8871 30.1266 15.0626C30.1266 15.0626 30.4817 14.101 30.4765 13.5074C30.4765 13.5074 31.1724 14.8455 30.0625 16.2063C30.0625 16.2063 30.9408 16.4646 31.3042 16.2063C31.3042 16.2063 32.3983 16.0468 32.6095 15.9888C32.6095 15.9888 32.8846 15.9225 32.7276 16.1171C32.7276 16.1171 32.3976 16.5852 32.3696 16.8919C32.3696 16.8919 32.3484 17.136 32.1478 17.279C32.1478 17.279 31.5258 17.7133 31.4712 18.1292C31.4712 18.1292 31.3383 18.5296 31.6129 18.4338C31.6129 18.4338 31.9852 18.2618 32.1168 18.435C32.1168 18.435 32.1553 18.4532 32.0117 18.6138C32.0117 18.6138 31.6382 18.938 31.6103 19.373C31.6103 19.373 31.6794 19.875 31.8114 20.0364C31.8114 20.0364 31.9796 20.269 32.2455 20.1952C32.2455 20.1952 32.3159 20.1383 32.4432 20.1765C32.4432 20.1765 32.5747 20.1761 32.9182 20.0576C32.9182 20.0576 33.4389 19.9149 33.613 19.8536C33.613 19.8536 34.2758 19.6172 34.6028 19.6337C34.6028 19.6337 34.8154 19.6103 35.0865 19.6644C35.0865 19.6644 35.9154 19.7583 36.4678 19.1494C36.4678 19.1494 36.8882 18.8169 37.0308 19.1397C37.0308 19.1397 38.0392 20.4891 39.6715 20.1336C39.6715 20.1336 38.3728 19.6009 38.0359 18.8755C38.0359 18.8755 37.991 18.2595 37.3106 17.404C37.3106 17.404 37.1027 17.1202 37.3033 17.0464C37.3033 17.0464 37.4195 16.9598 37.6728 17.2134C37.6728 17.2134 38.3191 17.8318 38.5526 18.3977C38.5526 18.3977 39.3552 19.6073 40.512 19.2008C40.512 19.2008 39.6038 18.8514 39.1771 18.1998C39.1771 18.1998 38.9133 17.3179 38.0267 16.6618C38.0267 16.6618 37.9919 15.6708 37.5784 15.1138C37.5784 15.1138 37.3677 14.1831 37.3109 13.9656C37.3109 13.9656 37.0878 13.1481 37.0892 12.9223C37.0892 12.9223 37.163 11.8546 36.4728 11.0234C36.4728 11.0234 36.0103 10.1343 35.29 9.51476C35.29 9.51476 34.7426 8.84028 34.3355 8.42719C34.3355 8.42719 33.7999 7.80106 32.6322 6.98409C32.6322 6.98409 32.1035 6.60072 31.7163 6.18858C31.7163 6.18858 29.6566 4.71009 28.1686 5.89604C28.1686 5.89604 27.141 6.59317 26.2828 6.80904C26.2828 6.80904 24.519 7.01381 23.767 8.23468C23.767 8.23468 23.7026 8.46022 22.9918 8.54609C22.9918 8.54609 21.4302 8.35806 20.2806 9.88963C20.2806 9.88963 19.7464 10.4096 18.689 10.536C18.689 10.536 16.9645 10.36 15.8418 11.6786C15.8418 11.6786 13.0087 14.1432 11.3195 12.5449C11.3195 12.5449 10.4442 11.7185 11.4449 10.222C11.4449 10.222 12.0795 9.45814 13.1623 8.66004C13.1623 8.66004 14.0406 8.04288 13.638 7.08341C13.638 7.08341 13.4253 6.15626 12.1089 6.13172C12.1089 6.13172 10.457 5.81347 9.78895 4.98163C9.78895 4.98163 9.04308 7.60148 11.9705 7.55784C11.9705 7.55784 12.7334 7.67037 12.467 8.27431C12.467 8.27431 12.093 8.79097 11.5911 8.979C11.5911 8.979 10.708 9.36425 10.3089 10.6467C10.3089 10.6467 9.41708 12.8917 11.5929 13.7582C12.4304 14.0467 13.3977 13.9618 14.2594 13.8122ZM10.0702 19.1024C10.1883 19.004 10.3612 18.9486 10.5147 18.9844C10.861 19.0588 10.6514 19.3579 10.6514 19.3579C10.5112 19.6195 10.0534 20.0609 10.0534 20.0609C9.6463 20.365 9.32387 20.0029 9.32387 20.0029C9.02226 19.7063 9.41471 19.5629 9.41471 19.5629C9.64299 19.4704 10.0702 19.1024 10.0702 19.1024ZM9.19732 20.5056C9.19732 20.5056 9.32387 20.5988 9.25622 20.7828C9.25622 20.7828 8.93308 21.6649 8.94822 21.961C8.94822 21.961 8.2331 22.0884 8.13398 21.7364C8.13398 21.7364 8.11482 21.6005 8.23145 21.4035C8.23145 21.4035 8.3528 21.2198 8.38426 20.8836C8.38426 20.8836 8.37362 20.0376 8.92314 20.2617C9.0322 20.3226 9.11831 20.411 9.19732 20.5056ZM34.4026 18.7155C34.2768 18.7124 34.2449 18.6664 34.26 18.5282C34.3444 18.1439 34.6534 17.978 34.6534 17.978C35.233 17.6326 35.3034 17.9785 35.3034 17.9785C35.4097 18.5954 34.9207 18.673 34.9207 18.673C34.823 18.7065 34.4026 18.7155 34.4026 18.7155ZM36.151 15.9605C36.1617 15.671 36.1863 15.0277 35.8913 14.7979C35.7825 14.7115 35.3519 14.2413 35.3519 14.2413C35.2864 14.1274 35.236 14.1203 35.236 14.1203C35.1473 14.1118 35.0328 14.3175 35.0328 14.3175C34.7262 14.9076 34.4204 14.8356 34.4204 14.8356C34.4178 14.728 34.4899 14.608 34.4899 14.608C34.6379 14.3213 34.7845 14.034 34.9297 13.7459C34.9744 13.6435 35.0156 13.5072 35.0156 13.5072C35.3115 13.0497 35.5904 13.3979 35.5904 13.3979C35.7148 13.6402 36.3784 14.4296 36.3784 14.4296C36.5255 14.6042 36.5397 14.7917 36.5397 14.7917C36.6935 15.8729 36.151 15.9605 36.151 15.9605ZM30.0395 9.43361C29.9489 9.27106 29.9863 9.10521 30.0774 8.94715C30.2827 8.63338 30.4746 8.97569 30.4746 8.97569C31.1835 9.96135 30.66 11.437 30.66 11.437C30.5872 10.0788 30.0395 9.43361 30.0395 9.43361ZM68.1049 13.8122C68.1049 13.8122 68.2345 15.0638 67.6692 16.1667C67.6692 16.1667 67.2502 16.7588 67.6852 17.1391L68.5515 17.6411C68.5515 17.6411 68.6677 17.7275 69.0542 17.6982C69.0542 17.6982 69.5879 17.5664 69.766 17.8016C69.766 17.8016 69.9212 18.2538 70.1149 18.6266C70.1149 18.6266 70.51 19.5301 71.1627 19.8196C71.1627 19.8196 71.6826 19.9385 71.8399 20.3884C71.8399 20.3884 72.0081 20.704 72.3436 20.718C72.3436 20.718 72.5945 20.7972 72.7601 21.3538C72.7601 21.3538 72.8507 21.7138 72.8462 21.9898C72.8462 21.9898 72.4188 21.9339 72.1401 22.0344C72.1401 22.0344 71.4557 22.2637 71.1496 21.7013C71.1496 21.7013 70.5582 20.6913 70.1197 20.8432C70.1197 20.8432 69.239 21.1372 68.6166 20.496C68.6166 20.496 67.7621 19.5648 66.5547 19.7564C66.5547 19.7564 65.1955 20.031 64.7711 19.7181C64.7711 19.7181 63.9136 19.2711 63.5918 19.1602C63.5918 19.1602 63.198 19.0448 63.1577 18.615C63.1577 18.615 62.9181 18.0103 62.744 17.8089L63.3924 17.8016C63.3924 17.8016 63.9796 18.7867 64.9776 19.0838C64.9776 19.0838 65.5238 19.3013 66.6188 19.1246C66.6188 19.1246 68.1919 18.7693 69.5734 20.2572C69.5734 20.2572 69.7625 20.5292 70.0314 20.4205C70.0314 20.4205 69.2685 19.1222 67.5923 18.8146C67.5923 18.8146 67.0439 18.6983 66.586 18.7724C66.586 18.7724 64.3285 18.8384 63.2812 16.622C63.2812 16.622 63.395 14.7323 62.8952 14.2848C62.8952 14.2848 62.7026 14.2258 62.7405 14.5912C62.7405 14.5912 63.0837 16.5708 62.4391 16.9541C62.4391 16.9541 62.0644 17.2476 61.3715 17.1391C61.3715 17.1391 60.3214 16.8888 59.4679 17.0346C59.4679 17.0346 58.1545 17.3453 57.0264 17.2016C57.0264 17.2016 57.3195 16.7543 57.262 16.2195C57.262 16.2195 57.1002 15.8366 56.915 16.0829C56.915 16.0829 56.4809 17.513 55.2943 17.9422C55.2943 17.9422 54.2348 18.3269 54.252 19.6672C54.252 19.6672 54.4148 19.851 55.8199 20.3487C55.8199 20.3487 56.3451 20.5141 56.5142 20.123C56.5142 20.123 57.191 18.6768 57.781 18.7214L58.8888 18.811C58.8888 18.811 59.2664 18.9075 58.9879 19.2095C58.9879 19.2095 58.6092 19.7122 58.4538 20.0123C58.4538 20.0123 58.4091 20.2688 58.0526 20.2143C58.0526 20.2143 57.5584 19.9701 57.2793 20.8869C57.2793 20.8869 57.0247 21.3453 56.593 21.4918C56.593 21.4918 56.189 21.6262 55.8102 21.4141C55.8102 21.4141 53.9814 20.7446 53.6632 20.5073C53.6632 20.5073 53.2675 20.2865 52.954 20.3926C52.954 20.3926 52.4059 20.5231 52.18 20.0914L51.6132 19.2168C51.6132 19.2168 51.4883 19.0014 51.5058 18.7308C51.5058 18.7308 51.4543 18.4628 51.6811 18.1904C51.6811 18.1904 51.8954 17.9646 51.929 17.8011L52.3333 16.8541C52.3333 16.8541 52.497 16.6012 52.6765 16.4972L53.2164 16.5366C53.2164 16.5366 52.8447 17.4826 52.5727 17.8681C52.5727 17.8681 52.2048 18.4291 52.2235 18.7858C52.2235 18.7858 52.2481 19.0359 52.3468 19.1401C52.3468 19.1401 52.4712 19.3388 52.5216 19.4353C52.5216 19.4353 52.6844 19.7892 52.8175 19.8677C52.8175 19.8677 53.0468 20.0031 53.1028 20.0086C53.1028 20.0086 53.2029 20.0362 53.1279 19.8578C53.1279 19.8578 52.8265 19.2234 52.8457 18.8842C52.8457 18.8842 52.7875 18.5308 53.0378 18.3239C53.0378 18.3239 53.6259 17.3989 53.7105 17.1224C53.7105 17.1224 53.8941 16.7524 53.9925 16.689C53.9925 16.689 54.1979 16.4198 53.8664 16.2938C53.8664 16.2938 53.0411 16.1079 52.8932 16.0069C52.8932 16.0069 52.4963 15.8871 52.2382 15.0626C52.2382 15.0626 51.8834 14.101 51.8883 13.5074C51.8883 13.5074 51.1924 14.8455 52.3025 16.2063C52.3025 16.2063 51.4242 16.4646 51.0609 16.2063C51.0609 16.2063 49.967 16.0468 49.7551 15.9888C49.7551 15.9888 49.4806 15.9225 49.6372 16.1171C49.6372 16.1171 49.967 16.5852 49.9954 16.8919C49.9954 16.8919 50.0162 17.136 50.2173 17.279C50.2173 17.279 50.8392 17.7133 50.8934 18.1292C50.8934 18.1292 51.0266 18.5296 50.7517 18.4338C50.7517 18.4338 50.3796 18.2618 50.248 18.435C50.248 18.435 50.2095 18.4532 50.3531 18.6138C50.3531 18.6138 50.7266 18.938 50.7543 19.373C50.7543 19.373 50.6852 19.875 50.553 20.0364C50.553 20.0364 50.385 20.269 50.1191 20.1952C50.1191 20.1952 50.0489 20.1383 49.9209 20.1765C49.9209 20.1765 49.7896 20.1761 49.4461 20.0576C49.4461 20.0576 48.9254 19.9149 48.7513 19.8536C48.7513 19.8536 48.0885 19.6172 47.7613 19.6337C47.7613 19.6337 47.5487 19.6103 47.2776 19.6644C47.2776 19.6644 46.4484 19.7583 45.8961 19.1494C45.8961 19.1494 45.4757 18.8169 45.3335 19.1397C45.3335 19.1397 44.3248 20.4891 42.6924 20.1336C42.6924 20.1336 43.9918 19.6009 44.3284 18.8755C44.3284 18.8755 44.3729 18.2595 45.0532 17.404C45.0532 17.404 45.2609 17.1202 45.0603 17.0464C45.0603 17.0464 44.9444 16.9598 44.6908 17.2134C44.6908 17.2134 44.0452 17.8318 43.8115 18.3977C43.8115 18.3977 43.0084 19.6073 41.8521 19.2008C41.8521 19.2008 42.7598 18.8514 43.1865 18.1998C43.1865 18.1998 43.4503 17.3179 44.3376 16.6618C44.3376 16.6618 44.3722 15.6708 44.7859 15.1138C44.7859 15.1138 44.9969 14.1831 45.0532 13.9656C45.0532 13.9656 45.2761 13.1481 45.2746 12.9223C45.2746 12.9223 45.2008 11.8546 45.8913 11.0234C45.8913 11.0234 46.3536 10.1343 47.0746 9.51476C47.0746 9.51476 47.6218 8.84028 48.0286 8.42719C48.0286 8.42719 48.5644 7.80106 49.7321 6.98409C49.7321 6.98409 50.2606 6.60072 50.6476 6.18858C50.6476 6.18858 52.7071 4.71009 54.1955 5.89604C54.1955 5.89604 55.2231 6.59317 56.0818 6.80904C56.0818 6.80904 57.8451 7.01381 58.5967 8.23468C58.5967 8.23468 58.661 8.46022 59.3719 8.54609C59.3719 8.54609 60.9334 8.35806 62.0833 9.88963C62.0833 9.88963 62.6174 10.4096 63.6751 10.536C63.6751 10.536 65.3987 10.36 66.5214 11.6786C66.5214 11.6786 69.3546 14.1432 71.0441 12.5449C71.0441 12.5449 71.9189 11.7185 70.9185 10.222C70.9185 10.222 70.2841 9.45814 69.2016 8.66004C69.2016 8.66004 68.3225 8.04288 68.7256 7.08341C68.7256 7.08341 68.9383 6.15626 70.2547 6.13172C70.2547 6.13172 71.9066 5.81347 72.5744 4.98163C72.5744 4.98163 73.3208 7.60148 70.3929 7.55784C70.3929 7.55784 69.6298 7.67037 69.8964 8.27431C69.8964 8.27431 70.2704 8.79097 70.7723 8.979C70.7723 8.979 71.6554 9.36425 72.0547 10.6467C72.0547 10.6467 72.9468 12.8917 70.77 13.7582C69.9337 14.0467 68.9667 13.9618 68.1049 13.8122ZM72.2943 19.1024C72.1761 19.004 72.0031 18.9486 71.8501 18.9844C71.5033 19.0588 71.7131 19.3579 71.7131 19.3579C71.8536 19.6195 72.3114 20.0609 72.3114 20.0609C72.719 20.365 73.0409 20.0029 73.0409 20.0029C73.3421 19.7063 72.9494 19.5629 72.9494 19.5629C72.7216 19.4704 72.2943 19.1024 72.2943 19.1024ZM73.1668 20.5056C73.1668 20.5056 73.0409 20.5988 73.1079 20.7828C73.1079 20.7828 73.431 21.6649 73.4161 21.961C73.4161 21.961 74.1317 22.0884 74.2301 21.7364C74.2301 21.7364 74.2493 21.6005 74.1329 21.4035C74.1329 21.4035 74.0115 21.2198 73.9801 20.8836C73.9801 20.8836 73.9909 20.0376 73.4414 20.2617C73.3321 20.3226 73.246 20.411 73.1668 20.5056ZM47.9615 18.7155C48.0875 18.7124 48.12 18.6664 48.1043 18.5282C48.0197 18.1439 47.7112 17.978 47.7112 17.978C47.1316 17.6326 47.0609 17.9785 47.0609 17.9785C46.9551 18.5954 47.4439 18.673 47.4439 18.673C47.5416 18.7065 47.9615 18.7155 47.9615 18.7155ZM46.2135 15.9605C46.2026 15.671 46.1778 15.0277 46.4733 14.7979C46.5826 14.7115 47.0126 14.2413 47.0126 14.2413C47.0782 14.1274 47.1285 14.1203 47.1285 14.1203C47.2168 14.1118 47.332 14.3175 47.332 14.3175C47.6381 14.9076 47.9444 14.8356 47.9444 14.8356C47.9468 14.728 47.8742 14.608 47.8742 14.608C47.7262 14.3213 47.5797 14.034 47.4346 13.7459C47.4022 13.6677 47.3736 13.5881 47.3488 13.5072C47.0528 13.0497 46.7742 13.3979 46.7742 13.3979C46.6497 13.6402 45.9864 14.4296 45.9864 14.4296C45.8987 14.5323 45.8424 14.658 45.8244 14.7917C45.6713 15.8729 46.2135 15.9605 46.2135 15.9605ZM52.3248 9.43361C52.4154 9.27106 52.378 9.10521 52.2869 8.94715C52.0816 8.63338 51.8902 8.97569 51.8902 8.97569C51.181 9.96135 51.7045 11.437 51.7045 11.437C51.7769 10.0788 52.3248 9.43361 52.3248 9.43361Z" fill="#CC2729"/>
<path d="M0.0126953 29.8592V47.9401H3.67107V33.3099H5.39464C5.39464 33.3099 8.08526 33.1892 8.08526 35.6318C8.08526 38.0745 5.69649 38.0136 5.69649 38.0136H4.81957V42.1755L8.47865 47.9405H12.7715L7.66205 40.5476C7.66205 40.5476 11.8648 40.1857 11.8648 35.6323C11.8648 31.0796 8.6899 29.8599 4.45739 29.8599L0.0126953 29.8592ZM53.5 38.3163C53.5 38.3163 55.102 37.0735 55.102 34.7184C55.102 32.362 53.386 30.2378 49.7321 30.2378H43.6128V47.9403H51.15C51.15 47.9403 56.5523 47.8792 56.5523 43.0106C56.5526 40.1843 55.4523 39.1019 53.5 38.3163ZM50.5518 44.8592H47.2717V33.3246H49.0248C49.0248 33.3246 51.4074 33.1462 51.4074 35.2192C51.4074 37.2922 49.5121 37.1094 49.5121 37.1094H48.4204V40.2169H50.5511C51.1096 40.2169 52.889 40.487 52.889 42.5291C52.8887 44.5707 50.5518 44.8592 50.5518 44.8592ZM76.5697 29.5037H79.9865V47.9403H76.5697V29.5037ZM70.6893 29.5037H74.1511V47.9403H70.6893V29.5037ZM57.5821 37.14H61.0888V43.3211C61.0888 43.3211 61.2109 45.4026 63.1755 45.4026C65.1401 45.4026 65.111 43.3211 65.111 43.3211V37.1693H68.6478V43.5329C68.6478 43.5329 69.1018 48.5082 63.2659 48.5082C57.4307 48.5082 57.5821 44.1359 57.5821 43.352V37.14ZM34.331 29.5037V37.8641C34.331 37.8641 32.6377 36.5677 30.7014 36.5677C28.7671 36.5677 25.5016 37.9245 25.5016 42.2059C25.5016 46.4875 28.2836 48.1168 30.6719 48.1168C33.0609 48.1168 34.3913 46.5484 34.3913 46.5484V47.9408H37.8375V29.5039H34.331V29.5037ZM31.6697 45.1001C31.488 45.1001 29.2204 45.1305 29.2204 42.3566C29.2204 39.582 31.6995 39.4917 31.6995 39.4917C31.6995 39.4917 34.4817 39.582 34.4817 42.296C34.4817 45.01 31.8509 45.1001 31.6697 45.1001ZM18.6076 36.5672C24.4733 36.5672 24.2313 42.2665 24.2313 42.2665V43.1705H16.2796C16.2796 44.4667 17.3678 45.5828 18.8496 45.5828C20.3309 45.5828 21.087 44.1656 21.087 44.1656L23.8985 45.5524C22.5986 47.5131 20.845 48.2963 18.8799 48.2963C12.772 48.2963 12.6511 43.2309 12.6511 42.598C12.6511 41.9643 12.7424 36.5672 18.6076 36.5672ZM16.3397 41.0895H20.6943C20.6943 41.0895 20.5129 39.0399 18.5475 39.0399C16.5822 39.0396 16.3397 41.0895 16.3397 41.0895Z" fill="#CC2729"/>
</g>
<defs>
<clipPath id="clip0_65_905">
<rect width="80" height="48.5079" fill="white"/>
</clipPath>
</defs>
</svg>
