<svg width="80" height="34" viewBox="0 0 80 34" fill="none" xmlns="http://www.w3.org/2000/svg">
<path fill-rule="evenodd" clip-rule="evenodd" d="M54.136 0.00334809C53.2389 0.0676939 52.4371 0.325077 51.8287 0.646806C50.6108 1.28983 48.3034 3.89455 48.3034 3.89455C46.8928 5.69494 48.4313 5.92016 48.4313 5.92016C48.4313 5.95233 48.4629 5.95233 48.4954 5.95233C48.2589 6.18742 48.0343 6.43425 47.8224 6.69188C47.4375 7.14187 47.2772 7.52794 47.2451 7.8175V8.10705C47.3413 8.62139 47.9498 8.71791 47.9498 8.71791C50.4505 9.13616 49.8416 10.6474 52.0207 11.6761C52.7899 12.03 53.4955 12.2226 54.136 12.3196C55.8029 12.5126 57.1178 11.9339 58.0145 11.4513C60.0657 10.2939 60.8991 8.62182 61.0911 8.46095C61.2515 8.30009 61.9891 7.04621 60.8345 6.66056C61.2194 6.14579 61.476 5.72798 61.5722 5.66363C61.6684 5.59928 61.9562 5.11712 61.9562 4.69887C61.9562 4.28105 61.7642 3.89498 60.9949 3.79846C59.4247 3.50933 59.0082 2.22285 57.0844 0.872445C56.0911 0.164213 55.0652 -0.0288248 54.136 0.00334809ZM54.136 11.1931C52.3739 10.9683 51.4117 9.71398 50.7712 8.97443C50.0981 8.20271 49.3289 7.84881 48.9757 7.75272C48.6233 7.68838 48.5917 7.72055 48.7191 7.52751C48.8478 7.33448 49.5209 6.59493 49.5209 6.59493C51.1552 8.94226 53.0786 9.61746 54.136 9.84267C54.6171 9.93919 54.9053 9.90702 54.9053 9.90702C56.8603 10.2927 59.6176 8.39575 59.6176 8.39575C58.8483 9.29616 57.1178 11.1931 54.7779 11.2252C54.5525 11.2252 54.3289 11.2252 54.136 11.1931Z" fill="#FFF22D"/>
<path fill-rule="evenodd" clip-rule="evenodd" d="M20.4175 23.5728C19.1136 26.82 17.8101 30.0675 16.507 33.3151H23.8153C23.8153 33.3151 22.5008 32.6399 23.1739 30.6147C23.879 28.5887 24.552 26.724 24.552 26.724C24.552 26.724 24.6483 26.5305 24.8086 26.6596C24.8086 26.6596 25.2892 27.7848 27.5971 27.7205C27.7895 27.6887 28.014 27.6887 28.206 27.657C30.3214 27.4644 32.4692 26.4674 33.6866 23.5406C33.9753 22.8336 34.2956 22.1263 34.5842 21.4185C35.6737 18.8463 36.4751 16.3064 34.7125 14.7952C34.6804 14.763 34.6163 14.7308 34.5842 14.6986C33.1739 13.6052 31.3788 13.7017 28.2055 13.766C26.8594 13.766 25.2568 13.7982 23.3334 13.7017L22.4358 13.8626C22.4358 13.8626 23.8144 14.6986 23.173 16.4995C22.9177 17.2377 21.7315 20.2928 20.4175 23.5728ZM77.6628 27.0131C78.3996 26.7887 79.041 26.1453 79.233 25.2445C79.4896 24.1193 78.849 23.3793 77.9194 23.3793C77.8223 23.3793 77.7591 23.4119 77.6628 23.4119C77.2459 23.4762 76.8611 23.6693 76.5404 23.958C76.2838 24.1832 76.0602 24.5049 75.8998 24.8588C75.8673 24.9871 75.8357 25.1162 75.8036 25.244C75.7074 25.6949 75.7711 26.1127 75.8998 26.4018C76.0602 26.6592 76.2522 26.8844 76.5404 26.9809C76.7332 27.0453 76.9252 27.0774 77.1501 27.0774V27.1092C77.3254 27.1085 77.4991 27.076 77.6628 27.0131ZM77.6628 22.865C77.7907 22.8332 77.9194 22.8332 78.0468 22.8332C79.2972 22.8332 80.2584 23.734 79.9377 25.2445C79.6812 26.4988 78.7199 27.3348 77.6628 27.5922C77.4384 27.624 77.2459 27.6566 77.0214 27.6566C76.8611 27.6566 76.7007 27.624 76.5404 27.624C76.3167 27.5605 76.0918 27.4957 75.8998 27.3996C75.2584 27.0135 74.9061 26.2744 75.098 25.2449C75.2584 24.634 75.5475 24.1197 75.8998 23.7345C76.0911 23.5458 76.3065 23.3836 76.5404 23.2519C76.8936 23.0584 77.278 22.8976 77.6628 22.865ZM77.6628 26.3705L77.3421 25.4379H77.0856L76.8611 26.5305H76.3167L76.5404 25.4053L76.8611 23.9267H77.8223C78.4954 23.9267 78.8486 24.1193 78.7203 24.7301C78.6241 25.2127 78.3034 25.3736 77.9511 25.4053L78.368 26.5305H77.7266L77.6628 26.3705ZM77.6628 24.3762H77.6945C77.919 24.3762 78.1756 24.4088 78.1431 24.6662C78.0798 24.9553 77.9194 25.0197 77.6628 25.0197H77.1818L77.3105 24.3762H77.6628ZM76.5404 14.8591C76.9252 15.5986 76.7649 16.4025 76.7007 16.8525C76.7007 17.0768 76.6366 17.3668 76.5404 17.656C76.3693 18.2392 76.1552 18.8089 75.8998 19.3603C75.6108 20.0681 75.3225 20.6146 75.3225 20.6146H67.9822C67.1813 22.2541 67.4695 24.5693 70.0976 24.441C70.2263 24.441 70.3541 24.441 70.4824 24.4092C72.9185 24.184 74.5849 22.8332 74.5849 22.8332L73.4949 25.6627C73.4949 25.6627 72.7902 26.8205 70.4824 27.3022C69.6815 27.4957 68.6553 27.5922 67.4374 27.5274C65.7069 27.4639 64.5211 26.9814 63.7519 26.274C60.9951 23.7975 63.367 18.5568 63.1421 19.1029C63.2708 18.7811 63.4628 18.2351 63.7519 17.5594C64.5853 15.7269 66.3475 13.0904 70.4824 12.9296H71.1555C73.7194 12.9939 75.1618 13.4761 75.8994 14.0873C76.2205 14.3443 76.4125 14.6017 76.5404 14.8591ZM70.4829 18.5568H71.3479C71.7328 18.4924 73.1426 15.9199 71.2838 15.7273C70.9956 15.6951 70.7074 15.7595 70.4829 15.856C69.2325 16.3703 68.7523 18.4281 68.7523 18.4281C68.7198 18.5572 68.8802 18.5572 68.8802 18.5572H70.4829V18.5568ZM63.7523 15.6947H64.1692L65.0988 13.5082H62.8547L63.7527 11.2253L64.7781 8.68489H62.7906C60.4832 13.9904 56.0917 13.5082 56.0917 13.5082L55.1945 15.6947H56.7972L53.4957 23.9262L52.0533 27.4953H59.7452C57.7264 26.5944 58.367 24.9232 58.367 24.9232C58.367 24.9232 60.6427 19.0064 62.0209 15.6947H63.7523ZM53.4957 17.0451C52.1166 20.4215 50.3865 24.9232 50.3865 24.9232C50.3865 24.9232 49.8092 26.4983 51.4765 27.4953H43.7838L46.0279 21.9328L49.3611 13.6043H54.9384C54.6814 14.1191 54.1362 15.4699 53.4957 17.0451ZM46.0275 17.7851C45.5464 17.4633 44.6484 17.1742 43.3348 18.0425C41.6043 19.1994 40.0016 24.9236 40.0016 24.9236C40.0016 24.9236 39.6492 26.7887 41.0916 27.4957H33.4309C33.4309 27.4957 33.9116 26.3062 34.5846 24.6662C35.8666 21.4506 37.8221 16.6273 37.8541 16.4664C37.9183 16.1773 38.8479 14.8908 37.4056 13.7334H42.8221L42.341 15.1482C42.341 15.1482 42.3735 15.3734 42.5655 15.1482C42.7259 14.9873 43.7196 13.7978 46.0275 13.3795C46.6364 13.2509 47.3736 13.1865 48.239 13.2509L46.3482 18.0738C46.3482 18.0742 46.2511 17.9133 46.0275 17.7851ZM28.206 23.6693C27.7891 24.441 27.3084 24.8588 26.5396 24.7301C25.001 24.4727 27.6291 19.5542 28.1102 17.9781C28.1102 17.9781 28.1423 17.849 28.2064 17.689C28.4309 17.142 28.9436 16.0808 29.6808 16.4347C30.6104 16.8529 30.5783 17.399 29.5846 20.0359C29.0715 21.4506 28.687 22.801 28.206 23.6693ZM24.2959 7.5923L21.6995 12.4796C21.6995 12.4796 21.6353 10.1322 20.4175 8.74966C19.8086 8.07446 18.9752 7.62404 17.7253 7.75273C13.9431 8.10664 14.9368 11.6113 15.3854 12.7369C15.3854 12.7369 18.5907 20.7437 18.6224 21.3215C18.6865 21.9006 19.8082 24.6662 17.0839 27.7844C17.0839 27.7844 13.013 33.5721 4.13456 30.55C4.13456 30.55 0.929195 29.4565 0 26.2092L3.68599 21.515C3.68599 21.515 2.66059 27.6561 8.42989 27.1735C13.8468 26.6909 10.1288 19.5207 9.80808 18.6529C9.2633 17.0768 5.96173 9.74616 9.77601 6.37016C12.5007 3.92631 17.0197 3.21894 20.4175 4.37673C22.1164 4.95541 23.5587 6.01669 24.2959 7.5923Z" fill="#33A457"/>
</svg>
