<svg width="47" height="47" viewBox="0 0 47 47" fill="none" xmlns="http://www.w3.org/2000/svg">
<rect width="47" height="47" rx="3" fill="#F6F6F6"/>
<path d="M38.4 34H30.6C29.1641 34 28 34.6268 28 35.4V39.6C28 40.3732 29.1641 41 30.6 41H38.4C39.8359 41 41 40.3732 41 39.6V35.4C41 34.6268 39.8359 34 38.4 34Z" fill="#C1C1C1"/>
<path d="M16.4 34H8.6C7.16406 34 6 34.6268 6 35.4V39.6C6 40.3732 7.16406 41 8.6 41H16.4C17.8359 41 19 40.3732 19 39.6V35.4C19 34.6268 17.8359 34 16.4 34Z" fill="#C1C1C1"/>
<path d="M38.4 20H30.6C29.1641 20 28 20.6268 28 21.4V25.6C28 26.3732 29.1641 27 30.6 27H38.4C39.8359 27 41 26.3732 41 25.6V21.4C41 20.6268 39.8359 20 38.4 20Z" fill="#C1C1C1"/>
<path d="M16.4 20H8.6C7.16406 20 6 20.6268 6 21.4V25.6C6 26.3732 7.16406 27 8.6 27H16.4C17.8359 27 19 26.3732 19 25.6V21.4C19 20.6268 17.8359 20 16.4 20Z" fill="#C1C1C1"/>
<path d="M38.4 6H30.6C29.1641 6 28 6.6268 28 7.4V11.6C28 12.3732 29.1641 13 30.6 13H38.4C39.8359 13 41 12.3732 41 11.6V7.4C41 6.6268 39.8359 6 38.4 6Z" fill="#C1C1C1"/>
<path d="M16.4 6H8.6C7.16406 6 6 6.6268 6 7.4V11.6C6 12.3732 7.16406 13 8.6 13H16.4C17.8359 13 19 12.3732 19 11.6V7.4C19 6.6268 17.8359 6 16.4 6Z" fill="#C1C1C1"/>
</svg>
