<svg width="47" height="47" viewBox="0 0 47 47" fill="none" xmlns="http://www.w3.org/2000/svg">
<rect width="47" height="47" rx="3" fill="#F6F6F6"/>
<path d="M12.0444 32.4445H7.51111C6.67655 32.4445 6 33.121 6 33.9556V38.4889C6 39.3235 6.67655 40 7.51111 40H12.0444C12.879 40 13.5556 39.3235 13.5556 38.4889V33.9556C13.5556 33.121 12.879 32.4445 12.0444 32.4445Z" fill="#63A60E"/>
<path d="M26.2112 32.4445H21.6779C20.8433 32.4445 20.1667 33.121 20.1667 33.9556V38.4889C20.1667 39.3235 20.8433 40 21.6779 40H26.2112C27.0458 40 27.7223 39.3235 27.7223 38.4889V33.9556C27.7223 33.121 27.0458 32.4445 26.2112 32.4445Z" fill="#63A60E"/>
<path d="M40.3777 32.4445H35.8444C35.0098 32.4445 34.3333 33.121 34.3333 33.9556V38.4889C34.3333 39.3235 35.0098 40 35.8444 40H40.3777C41.2123 40 41.8888 39.3235 41.8888 38.4889V33.9556C41.8888 33.121 41.2123 32.4445 40.3777 32.4445Z" fill="#63A60E"/>
<path d="M12.0444 19.2222H7.51111C6.67655 19.2222 6 19.8987 6 20.7333V25.2666C6 26.1012 6.67655 26.7777 7.51111 26.7777H12.0444C12.879 26.7777 13.5556 26.1012 13.5556 25.2666V20.7333C13.5556 19.8987 12.879 19.2222 12.0444 19.2222Z" fill="#63A60E"/>
<path d="M26.2112 19.2222H21.6779C20.8433 19.2222 20.1667 19.8987 20.1667 20.7333V25.2666C20.1667 26.1012 20.8433 26.7777 21.6779 26.7777H26.2112C27.0458 26.7777 27.7223 26.1012 27.7223 25.2666V20.7333C27.7223 19.8987 27.0458 19.2222 26.2112 19.2222Z" fill="#63A60E"/>
<path d="M40.3777 19.2222H35.8444C35.0098 19.2222 34.3333 19.8987 34.3333 20.7333V25.2666C34.3333 26.1012 35.0098 26.7777 35.8444 26.7777H40.3777C41.2123 26.7777 41.8888 26.1012 41.8888 25.2666V20.7333C41.8888 19.8987 41.2123 19.2222 40.3777 19.2222Z" fill="#63A60E"/>
<path d="M12.0444 6H7.51111C6.67655 6 6 6.67655 6 7.51111V12.0444C6 12.879 6.67655 13.5556 7.51111 13.5556H12.0444C12.879 13.5556 13.5556 12.879 13.5556 12.0444V7.51111C13.5556 6.67655 12.879 6 12.0444 6Z" fill="#63A60E"/>
<path d="M26.2112 6H21.6779C20.8433 6 20.1667 6.67655 20.1667 7.51111V12.0444C20.1667 12.879 20.8433 13.5556 21.6779 13.5556H26.2112C27.0458 13.5556 27.7223 12.879 27.7223 12.0444V7.51111C27.7223 6.67655 27.0458 6 26.2112 6Z" fill="#63A60E"/>
<path d="M40.3777 6H35.8444C35.0098 6 34.3333 6.67655 34.3333 7.51111V12.0444C34.3333 12.879 35.0098 13.5556 35.8444 13.5556H40.3777C41.2123 13.5556 41.8888 12.879 41.8888 12.0444V7.51111C41.8888 6.67655 41.2123 6 40.3777 6Z" fill="#63A60E"/>
</svg>
